<svg width="56" height="72" viewBox="0 0 56 72" fill="none" xmlns="http://www.w3.org/2000/svg">
<path d="M1.39323 31.6917H7.0258V5.50696H15.4747V51.984H7.0258C7.0258 51.984 6.63437 30.1632 28.6002 30.1632C50.5661 30.1632 50.2054 51.984 50.2054 51.984H41.6847V5.50696H50.2054V32.5644H55.5492V0.0517578H36.2706V58.4966H55.5492C55.5492 58.4966 59.8814 24.0538 28.4712 24.0538C-2.93895 24.0538 1.39323 58.4966 1.39323 58.4966H20.2393V0.0517578H1.18945L1.39323 31.6917Z" fill="#333333"/>
<path d="M7.09685 64.1914V71.9485H5.49407V68.6072H2.10277V71.9485H0.5V64.1914H2.10277V67.4846H5.49407V64.1914H7.09685Z" fill="#333333"/>
<path d="M14.9309 69.0028L14.0977 66.6292C14.0482 66.5044 13.9951 66.3583 13.9385 66.1908C13.8854 66.0233 13.8341 65.8415 13.7846 65.6455C13.735 65.8451 13.682 66.0304 13.6254 66.2015C13.5723 66.369 13.521 66.5151 13.4714 66.6399L12.6435 69.0028H14.9309ZM17.6058 71.9485H16.3692C16.2312 71.9485 16.118 71.9164 16.0295 71.8522C15.9446 71.7845 15.8809 71.699 15.8385 71.5956L15.3184 70.1148H12.2508L11.7307 71.5956C11.6953 71.6847 11.6334 71.7667 11.5449 71.8415C11.4565 71.9128 11.345 71.9485 11.2106 71.9485H9.96339L12.9726 64.1914H14.6019L17.6058 71.9485Z" fill="#333333"/>
<path d="M26.8104 64.1914L23.711 71.9485H22.2675L19.1681 64.1914H20.4524C20.5904 64.1914 20.7018 64.2253 20.7868 64.293C20.8752 64.3571 20.9407 64.4409 20.9831 64.5442L22.6496 69.0135C22.7133 69.181 22.7752 69.3646 22.8353 69.5641C22.899 69.7602 22.9574 69.9669 23.0105 70.1843C23.0565 69.9669 23.106 69.7602 23.1591 69.5641C23.2157 69.3646 23.2758 69.181 23.3395 69.0135L24.9954 64.5442C25.0307 64.4551 25.0927 64.375 25.1811 64.3037C25.2731 64.2288 25.3863 64.1914 25.5208 64.1914H26.8104Z" fill="#333333"/>
<path d="M33.3506 69.0028L32.5174 66.6292C32.4679 66.5044 32.4148 66.3583 32.3582 66.1908C32.3051 66.0233 32.2538 65.8415 32.2043 65.6455C32.1547 65.8451 32.1017 66.0304 32.0451 66.2015C31.992 66.369 31.9407 66.5151 31.8912 66.6399L31.0632 69.0028H33.3506ZM36.0255 71.9485H34.7889C34.6509 71.9485 34.5377 71.9164 34.4492 71.8522C34.3643 71.7845 34.3006 71.699 34.2582 71.5956L33.7381 70.1148H30.6705L30.1504 71.5956C30.115 71.6847 30.0531 71.7667 29.9646 71.8415C29.8762 71.9128 29.7647 71.9485 29.6303 71.9485H28.3831L31.3923 64.1914H33.0216L36.0255 71.9485Z" fill="#333333"/>
<path d="M45.4911 64.1914V71.9485H44.6685C44.5446 71.9485 44.4403 71.9289 44.3553 71.8897C44.2704 71.8469 44.1873 71.7756 44.1059 71.6758L40.2688 66.7575C40.2794 66.8822 40.2865 67.0052 40.29 67.1264C40.2971 67.2475 40.3006 67.3598 40.3006 67.4632V71.9485H38.8942V64.1914H39.7328C39.8 64.1914 39.8566 64.195 39.9026 64.2021C39.9521 64.2057 39.9964 64.2181 40.0353 64.2395C40.0742 64.2573 40.1114 64.2823 40.1467 64.3144C40.1821 64.3464 40.221 64.3892 40.2635 64.4427L44.1271 69.3824C44.113 69.247 44.1024 69.1169 44.0953 68.9921C44.0882 68.8638 44.0847 68.7426 44.0847 68.6286V64.1914H45.4911Z" fill="#333333"/>
<path d="M53.3252 69.0028L52.4919 66.6292C52.4424 66.5044 52.3893 66.3583 52.3327 66.1908C52.2797 66.0233 52.2284 65.8415 52.1788 65.6455C52.1293 65.8451 52.0762 66.0304 52.0196 66.2015C51.9665 66.369 51.9152 66.5151 51.8657 66.6399L51.0378 69.0028H53.3252ZM56 71.9485H54.7634C54.6254 71.9485 54.5122 71.9164 54.4238 71.8522C54.3388 71.7845 54.2752 71.699 54.2327 71.5956L53.7126 70.1148H50.645L50.1249 71.5956C50.0896 71.6847 50.0276 71.7667 49.9392 71.8415C49.8507 71.9128 49.7393 71.9485 49.6048 71.9485H48.3576L51.3668 64.1914H52.9961L56 71.9485Z" fill="#333333"/>
</svg>
