<svg width="25" height="24" viewBox="0 0 25 24" fill="none" xmlns="http://www.w3.org/2000/svg">
<path d="M9.08219 22.5499C8.86219 22.5499 8.63219 22.5099 8.42219 22.4199C7.95219 22.2199 7.59219 21.8299 7.43219 21.3399L6.99219 20.0199C6.79219 19.4199 6.97219 18.6699 7.41219 18.2199L9.68219 15.9399C9.71219 15.9099 9.75219 15.7999 9.75219 15.7499V13.2799L5.19219 15.2499C4.58219 15.5099 3.96219 15.4799 3.49219 15.1699C3.02219 14.8599 2.74219 14.2999 2.74219 13.6499V12.3599C2.74219 11.3799 3.44219 10.3299 4.33219 9.9799L9.74219 7.6399V4.7999C9.74219 3.5899 10.5922 2.1999 11.6722 1.6399C11.9247 1.51166 12.204 1.44482 12.4872 1.44482C12.7704 1.44482 13.0497 1.51166 13.3022 1.6399C14.3922 2.1999 15.2422 3.5799 15.2422 4.7899V7.6299L20.6822 9.9699C21.5722 10.3499 22.2522 11.3699 22.2522 12.3599V13.6499C22.2522 14.3099 21.9822 14.8599 21.5022 15.1699C21.0222 15.4799 20.4122 15.5099 19.8022 15.2599L15.2422 13.2899V15.7599C15.2422 15.7999 15.2822 15.8999 15.3122 15.9299L17.5922 18.2199C18.0322 18.6599 18.2122 19.4299 18.0122 20.0199L17.5722 21.3399C17.4022 21.8299 17.0422 22.2199 16.5622 22.4099C16.0922 22.5999 15.5722 22.5799 15.1222 22.3599C15.0722 22.3299 15.0222 22.2999 14.9722 22.2599L12.6422 20.2999C12.5622 20.2299 12.4022 20.2399 12.3322 20.2999L10.0022 22.2599C9.96199 22.2989 9.91439 22.3295 9.86219 22.3499C9.62219 22.4899 9.35219 22.5499 9.08219 22.5499ZM10.0622 11.6399C10.2922 11.6399 10.5122 11.6999 10.7022 11.8299C11.0522 12.0599 11.2522 12.4499 11.2522 12.9099V15.7599C11.2522 16.1899 11.0422 16.6999 10.7422 16.9999L8.47219 19.2799C8.43219 19.3299 8.39219 19.4799 8.41219 19.5399L8.85219 20.8699C8.88219 20.9699 8.95219 21.0099 8.99219 21.0299C9.02219 21.0399 9.07219 21.0599 9.13219 21.0399L11.3722 19.1499C12.0022 18.6099 12.9922 18.6099 13.6222 19.1499L15.8522 21.0299C15.9222 21.0399 15.9722 21.0299 16.0022 21.0199C16.0422 20.9999 16.1222 20.9599 16.1522 20.8599L16.5922 19.5399C16.6046 19.4488 16.5833 19.3563 16.5322 19.2799L14.2622 16.9999C13.9622 16.7199 13.7422 16.1999 13.7422 15.7599V12.9099C13.7422 12.4599 13.9322 12.0699 14.2722 11.8399C14.6122 11.6099 15.0522 11.5799 15.4722 11.7599L20.3922 13.8799C20.5422 13.9399 20.6422 13.9399 20.6722 13.9199C20.7022 13.8999 20.7422 13.8099 20.7422 13.6499V12.3599C20.7422 11.9799 20.4222 11.4899 20.0822 11.3499L14.5022 8.9399C14.0622 8.7499 13.7522 8.2699 13.7522 7.7899V4.7899C13.7522 4.1299 13.2322 3.2799 12.6322 2.9799C12.5899 2.96016 12.5438 2.94993 12.4972 2.94993C12.4505 2.94993 12.4045 2.96016 12.3622 2.9799C11.7822 3.2799 11.2522 4.1499 11.2522 4.7999V7.7999C11.2522 8.2699 10.9422 8.7599 10.5022 8.9499L4.92219 11.3599C4.57219 11.4999 4.25219 11.9899 4.25219 12.3599V13.6499C4.25219 13.8099 4.29219 13.8999 4.32219 13.9199C4.35219 13.9399 4.45219 13.9399 4.60219 13.8799L9.51219 11.7599C9.69219 11.6799 9.88219 11.6399 10.0622 11.6399Z" fill="#ED9B2D"/>
</svg>
