<svg width="25" height="24" viewBox="0 0 25 24" fill="none" xmlns="http://www.w3.org/2000/svg">
<g clip-path="url(#clip0_689_17001)">
<path d="M21.5 11.7499H3.5C2.54 11.7499 1.75 10.9599 1.75 9.99991V6.67991C1.75 5.99991 2.22 5.30991 2.85 5.05991L11.85 1.45991C12.23 1.30991 12.77 1.30991 13.15 1.45991L22.15 5.05991C22.78 5.30991 23.25 6.00991 23.25 6.67991V9.99991C23.25 10.9599 22.46 11.7499 21.5 11.7499ZM12.5 2.83991C12.46 2.83991 12.42 2.83991 12.4 2.84991L3.41 6.44991C3.35 6.47991 3.25 6.60991 3.25 6.67991V9.99991C3.25 10.1399 3.36 10.2499 3.5 10.2499H21.5C21.64 10.2499 21.75 10.1399 21.75 9.99991V6.67991C21.75 6.60991 21.66 6.47991 21.59 6.44991L12.59 2.84991C12.57 2.83991 12.54 2.83991 12.5 2.83991ZM22.5 22.7499H2.5C2.09 22.7499 1.75 22.4099 1.75 21.9999V18.9999C1.75 18.0399 2.54 17.2499 3.5 17.2499H21.5C22.46 17.2499 23.25 18.0399 23.25 18.9999V21.9999C23.25 22.4099 22.91 22.7499 22.5 22.7499ZM3.25 21.2499H21.75V18.9999C21.75 18.8599 21.64 18.7499 21.5 18.7499H3.5C3.36 18.7499 3.25 18.8599 3.25 18.9999V21.2499Z" fill="#ED9B2D"/>
<path d="M4.5 18.75C4.09 18.75 3.75 18.41 3.75 18V11C3.75 10.59 4.09 10.25 4.5 10.25C4.91 10.25 5.25 10.59 5.25 11V18C5.25 18.41 4.91 18.75 4.5 18.75ZM8.5 18.75C8.09 18.75 7.75 18.41 7.75 18V11C7.75 10.59 8.09 10.25 8.5 10.25C8.91 10.25 9.25 10.59 9.25 11V18C9.25 18.41 8.91 18.75 8.5 18.75ZM12.5 18.75C12.09 18.75 11.75 18.41 11.75 18V11C11.75 10.59 12.09 10.25 12.5 10.25C12.91 10.25 13.25 10.59 13.25 11V18C13.25 18.41 12.91 18.75 12.5 18.75ZM16.5 18.75C16.09 18.75 15.75 18.41 15.75 18V11C15.75 10.59 16.09 10.25 16.5 10.25C16.91 10.25 17.25 10.59 17.25 11V18C17.25 18.41 16.91 18.75 16.5 18.75ZM20.5 18.75C20.09 18.75 19.75 18.41 19.75 18V11C19.75 10.59 20.09 10.25 20.5 10.25C20.91 10.25 21.25 10.59 21.25 11V18C21.25 18.41 20.91 18.75 20.5 18.75ZM23.5 22.75H1.5C1.09 22.75 0.75 22.41 0.75 22C0.75 21.59 1.09 21.25 1.5 21.25H23.5C23.91 21.25 24.25 21.59 24.25 22C24.25 22.41 23.91 22.75 23.5 22.75ZM12.5 9.25C11.26 9.25 10.25 8.24 10.25 7C10.25 5.76 11.26 4.75 12.5 4.75C13.74 4.75 14.75 5.76 14.75 7C14.75 8.24 13.74 9.25 12.5 9.25ZM12.5 6.25C12.09 6.25 11.75 6.59 11.75 7C11.75 7.41 12.09 7.75 12.5 7.75C12.91 7.75 13.25 7.41 13.25 7C13.25 6.59 12.91 6.25 12.5 6.25Z" fill="#ED9B2D"/>
</g>
<defs>
<clipPath id="clip0_689_17001">
<rect width="24" height="24" fill="white" transform="translate(0.5)"/>
</clipPath>
</defs>
</svg>
