<svg width="24" height="20" viewBox="0 0 24 20" fill="none" xmlns="http://www.w3.org/2000/svg">
<path d="M6.46875 16.6406V18.9844" stroke="#ED9B2D" stroke-width="1.5" stroke-linecap="round" stroke-linejoin="round"/>
<path d="M17.4062 16.6406V18.9844" stroke="#ED9B2D" stroke-width="1.5" stroke-linecap="round" stroke-linejoin="round"/>
<path d="M4.90625 8.04688V2.96875C4.90625 2.45075 5.11203 1.95396 5.47831 1.58768C5.84459 1.2214 6.34137 1.01562 6.85938 1.01562C7.37738 1.01562 7.87416 1.2214 8.24044 1.58768C8.60672 1.95396 8.8125 2.45075 8.8125 2.96875" stroke="#ED9B2D" stroke-width="1.5" stroke-linecap="round" stroke-linejoin="round"/>
<path d="M18.9688 7.26562H12.7188V11.9531H18.9688V7.26562Z" stroke="#ED9B2D" stroke-width="1.5" stroke-linecap="round" stroke-linejoin="round"/>
<path d="M18.9688 8.04688H22.0938C22.301 8.04688 22.4997 8.12919 22.6462 8.2757C22.7927 8.42221 22.875 8.62092 22.875 8.82812V11.9531C22.875 13.1963 22.3811 14.3886 21.5021 15.2677C20.623 16.1468 19.4307 16.6406 18.1875 16.6406H5.6875C4.4443 16.6406 3.25201 16.1468 2.37294 15.2677C1.49386 14.3886 1 13.1963 1 11.9531V8.82812C1 8.62092 1.08231 8.42221 1.22882 8.2757C1.37534 8.12919 1.57405 8.04688 1.78125 8.04688H12.7188" stroke="#ED9B2D" stroke-width="1.5" stroke-linecap="round" stroke-linejoin="round"/>
</svg>
