<svg width="25" height="24" viewBox="0 0 25 24" fill="none" xmlns="http://www.w3.org/2000/svg">
<path d="M17.4 22.75H7.6C5.48 22.75 3.75 21.02 3.75 18.9V5.1C3.75 2.98 5.48 1.25 7.6 1.25H17.4C19.52 1.25 21.25 2.98 21.25 5.1V18.9C21.25 21.02 19.52 22.75 17.4 22.75ZM7.6 2.75C6.31 2.75 5.25 3.8 5.25 5.1V18.9C5.25 20.19 6.3 21.25 7.6 21.25H17.4C18.69 21.25 19.75 20.2 19.75 18.9V5.1C19.75 3.81 18.7 2.75 17.4 2.75H7.6Z" fill="#ED9B2D"/>
<path d="M19 13.75H6C4.76 13.75 3.75 12.74 3.75 11.5V9.5C3.75 8.26 4.76 7.25 6 7.25H19C20.24 7.25 21.25 8.26 21.25 9.5V11.5C21.25 12.74 20.24 13.75 19 13.75ZM6 8.75C5.59 8.75 5.25 9.09 5.25 9.5V11.5C5.25 11.91 5.59 12.25 6 12.25H19C19.41 12.25 19.75 11.91 19.75 11.5V9.5C19.75 9.09 19.41 8.75 19 8.75H6ZM8.5 18.748C8.17 18.748 7.85 18.618 7.62 18.378C7.56 18.328 7.51 18.258 7.46 18.188C7.41742 18.1213 7.38062 18.051 7.35 17.978C7.31 17.898 7.29 17.818 7.27 17.738C7.26 17.658 7.25 17.578 7.25 17.498C7.25 17.418 7.26 17.338 7.27 17.258C7.29 17.178 7.31 17.098 7.35 17.018C7.38 16.948 7.42 16.868 7.46 16.808C7.51 16.738 7.56 16.668 7.62 16.618C8.08 16.148 8.91 16.148 9.38 16.618C9.44 16.668 9.49 16.738 9.54 16.808C9.58 16.868 9.62 16.948 9.65 17.018C9.69 17.098 9.71 17.178 9.73 17.258C9.74 17.338 9.75 17.418 9.75 17.498C9.75 17.578 9.74 17.658 9.73 17.738C9.71 17.818 9.69 17.898 9.65 17.978C9.62 18.048 9.58 18.128 9.54 18.188C9.49 18.258 9.44 18.328 9.38 18.378C9.15 18.618 8.83 18.748 8.5 18.748ZM16.5 18.748C16.17 18.748 15.85 18.618 15.62 18.378C15.38 18.148 15.25 17.828 15.25 17.498C15.25 17.168 15.38 16.848 15.62 16.618C16.08 16.148 16.92 16.148 17.38 16.618C17.62 16.848 17.75 17.168 17.75 17.498C17.75 17.828 17.62 18.148 17.38 18.378C17.15 18.618 16.83 18.748 16.5 18.748ZM15 5.75H10C9.59 5.75 9.25 5.41 9.25 5C9.25 4.59 9.59 4.25 10 4.25H15C15.41 4.25 15.75 4.59 15.75 5C15.75 5.41 15.41 5.75 15 5.75Z" fill="#ED9B2D"/>
</svg>
