<svg width="14" height="15" viewBox="0 0 14 15" fill="none" xmlns="http://www.w3.org/2000/svg">
<path d="M6.9935 0.833984C3.3135 0.833984 0.333496 3.82065 0.333496 7.50065C0.333496 11.1807 3.3135 14.1673 6.9935 14.1673C10.6802 14.1673 13.6668 11.1807 13.6668 7.50065C13.6668 3.82065 10.6802 0.833984 6.9935 0.833984ZM11.6135 4.83398H9.64683C9.4335 4.00065 9.12683 3.20065 8.72683 2.46065C9.9535 2.88065 10.9735 3.73398 11.6135 4.83398ZM7.00016 2.19398C7.5535 2.99398 7.98683 3.88065 8.2735 4.83398H5.72683C6.0135 3.88065 6.44683 2.99398 7.00016 2.19398ZM1.84016 8.83398C1.7335 8.40732 1.66683 7.96065 1.66683 7.50065C1.66683 7.04065 1.7335 6.59398 1.84016 6.16732H4.0935C4.04016 6.60732 4.00016 7.04732 4.00016 7.50065C4.00016 7.95398 4.04016 8.39398 4.0935 8.83398H1.84016ZM2.38683 10.1673H4.3535C4.56683 11.0007 4.8735 11.8007 5.2735 12.5407C4.04683 12.1207 3.02683 11.274 2.38683 10.1673ZM4.3535 4.83398H2.38683C3.02683 3.72732 4.04683 2.88065 5.2735 2.46065C4.8735 3.20065 4.56683 4.00065 4.3535 4.83398ZM7.00016 12.8073C6.44683 12.0073 6.0135 11.1207 5.72683 10.1673H8.2735C7.98683 11.1207 7.5535 12.0073 7.00016 12.8073ZM8.56016 8.83398H5.44016C5.38016 8.39398 5.3335 7.95398 5.3335 7.50065C5.3335 7.04732 5.38016 6.60065 5.44016 6.16732H8.56016C8.62016 6.60065 8.66683 7.04732 8.66683 7.50065C8.66683 7.95398 8.62016 8.39398 8.56016 8.83398ZM8.72683 12.5407C9.12683 11.8007 9.4335 11.0007 9.64683 10.1673H11.6135C10.9735 11.2673 9.9535 12.1207 8.72683 12.5407ZM9.90683 8.83398C9.96016 8.39398 10.0002 7.95398 10.0002 7.50065C10.0002 7.04732 9.96016 6.60732 9.90683 6.16732H12.1602C12.2668 6.59398 12.3335 7.04065 12.3335 7.50065C12.3335 7.96065 12.2668 8.40732 12.1602 8.83398H9.90683Z" fill="#0E1D70"/>
</svg>
