<svg width="21" height="23" viewBox="0 0 21 23" fill="none" xmlns="http://www.w3.org/2000/svg">
<path d="M19.75 16.2485V6.61963C19.7493 6.48054 19.7118 6.34411 19.6415 6.2241C19.5713 6.10408 19.4706 6.00472 19.3496 5.93603L10.7559 1.10205C10.6401 1.0352 10.5087 1 10.375 1C10.2413 1 10.1099 1.0352 9.99414 1.10205L1.40039 5.93603C1.27944 6.00472 1.17875 6.10408 1.10845 6.2241C1.03815 6.34411 1.00075 6.48054 1 6.61963V16.2485C1.00075 16.3876 1.03815 16.5241 1.10845 16.6441C1.17875 16.7641 1.27944 16.8634 1.40039 16.9321L9.99414 21.7661C10.1099 21.833 10.2413 21.8682 10.375 21.8682C10.5087 21.8682 10.6401 21.833 10.7559 21.7661L19.3496 16.9321C19.4706 16.8634 19.5713 16.7641 19.6415 16.6441C19.7118 16.5241 19.7493 16.3876 19.75 16.2485Z" stroke="#ED9B2D" stroke-width="1.5" stroke-linecap="round" stroke-linejoin="round"/>
<path d="M19.6426 6.21875L10.4629 11.4336L1.10742 6.21875" stroke="#ED9B2D" stroke-width="1.5" stroke-linecap="round" stroke-linejoin="round"/>
<path d="M10.4629 11.4336L10.375 21.8633" stroke="#ED9B2D" stroke-width="1.5" stroke-linecap="round" stroke-linejoin="round"/>
</svg>
