<svg width="25" height="24" viewBox="0 0 25 24" fill="none" xmlns="http://www.w3.org/2000/svg">
<path d="M16.6702 10.8101H8.33024C7.47024 10.8101 6.81024 10.4701 6.51024 9.89009C6.21024 9.30009 6.33024 8.57009 6.83024 7.88009L11.0002 2.04009C11.1686 1.7946 11.3945 1.59397 11.6581 1.45568C11.9218 1.31738 12.2152 1.24561 12.5129 1.24659C12.8106 1.24758 13.1035 1.3213 13.3662 1.46134C13.629 1.60137 13.8535 1.80349 14.0202 2.05009L18.1902 7.88009C18.6902 8.57009 18.8102 9.30009 18.5102 9.89009C18.1902 10.4701 17.5302 10.8101 16.6702 10.8101ZM12.5002 2.70009C12.4102 2.70009 12.3102 2.78009 12.2202 2.90009L8.05024 8.75009C7.85024 9.02009 7.84024 9.18009 7.85024 9.21009C7.86024 9.23009 8.00024 9.31009 8.34024 9.31009H16.6802C17.0102 9.31009 17.1502 9.22009 17.1702 9.20009C17.1702 9.18009 17.1602 9.02009 16.9702 8.75009L12.8002 2.91009C12.6902 2.77009 12.5902 2.70009 12.5002 2.70009Z" fill="#ED9B2D"/>
<path d="M18.0901 18.7491H6.92015C5.49015 18.7491 4.92015 18.0591 4.71015 17.6491C4.50015 17.2391 4.28015 16.3791 5.12015 15.2191L9.11015 9.61908C9.25015 9.41908 9.48015 9.30908 9.72015 9.30908H15.2901C15.5301 9.30908 15.7601 9.42908 15.9001 9.61908L19.8901 15.2291C20.7301 16.3791 20.5001 17.2391 20.2901 17.6491C20.0801 18.0591 19.5201 18.7491 18.0901 18.7491ZM10.1001 10.8091L6.33015 16.0991C6.01015 16.5391 5.98015 16.8391 6.04015 16.9691C6.11015 17.0991 6.37015 17.2491 6.91015 17.2491H18.0801C18.6201 17.2491 18.8901 17.0991 18.9501 16.9691C19.0201 16.8391 18.9801 16.5391 18.6601 16.0991L14.8901 10.7991H10.1001V10.8091Z" fill="#ED9B2D"/>
<path d="M12.5 22.75C12.09 22.75 11.75 22.41 11.75 22V18C11.75 17.59 12.09 17.25 12.5 17.25C12.91 17.25 13.25 17.59 13.25 18V22C13.25 22.41 12.91 22.75 12.5 22.75Z" fill="#ED9B2D"/>
</svg>
