<svg width="128" height="48" viewBox="0 0 128 48" fill="none" xmlns="http://www.w3.org/2000/svg">
<rect width="128" height="48" rx="24" fill="#B5C0FF"/>
<path d="M28.75 15.56V14C28.75 13.59 28.41 13.25 28 13.25C27.59 13.25 27.25 13.59 27.25 14V15.5H20.75V14C20.75 13.59 20.41 13.25 20 13.25C19.59 13.25 19.25 13.59 19.25 14V15.56C16.55 15.81 15.24 17.42 15.04 19.81C15.02 20.1 15.26 20.34 15.54 20.34H32.46C32.75 20.34 32.99 20.09 32.96 19.81C32.76 17.42 31.45 15.81 28.75 15.56ZM32 21.84H16C15.45 21.84 15 22.29 15 22.84V29C15 32 16.5 34 20 34H28C31.5 34 33 32 33 29V22.84C33 22.29 32.55 21.84 32 21.84ZM21.21 30.21C21.16 30.25 21.11 30.3 21.06 30.33C21 30.37 20.94 30.4 20.88 30.42C20.82 30.45 20.76 30.47 20.7 30.48C20.63 30.49 20.57 30.5 20.5 30.5C20.37 30.5 20.24 30.47 20.12 30.42C19.99 30.37 19.89 30.3 19.79 30.21C19.61 30.02 19.5 29.76 19.5 29.5C19.5 29.24 19.61 28.98 19.79 28.79C19.89 28.7 19.99 28.63 20.12 28.58C20.3 28.5 20.5 28.48 20.7 28.52C20.76 28.53 20.82 28.55 20.88 28.58C20.94 28.6 21 28.63 21.06 28.67L21.21 28.79C21.39 28.98 21.5 29.24 21.5 29.5C21.5 29.76 21.39 30.02 21.21 30.21ZM21.21 26.71C21.02 26.89 20.76 27 20.5 27C20.24 27 19.98 26.89 19.79 26.71C19.61 26.52 19.5 26.26 19.5 26C19.5 25.74 19.61 25.48 19.79 25.29C20.07 25.01 20.51 24.92 20.88 25.08C21.01 25.13 21.12 25.2 21.21 25.29C21.39 25.48 21.5 25.74 21.5 26C21.5 26.26 21.39 26.52 21.21 26.71ZM24.71 30.21C24.52 30.39 24.26 30.5 24 30.5C23.74 30.5 23.48 30.39 23.29 30.21C23.11 30.02 23 29.76 23 29.5C23 29.24 23.11 28.98 23.29 28.79C23.66 28.42 24.34 28.42 24.71 28.79C24.89 28.98 25 29.24 25 29.5C25 29.76 24.89 30.02 24.71 30.21ZM24.71 26.71L24.56 26.83C24.5 26.87 24.44 26.9 24.38 26.92C24.32 26.95 24.26 26.97 24.2 26.98C24.13 26.99 24.07 27 24 27C23.74 27 23.48 26.89 23.29 26.71C23.11 26.52 23 26.26 23 26C23 25.74 23.11 25.48 23.29 25.29C23.38 25.2 23.49 25.13 23.62 25.08C23.99 24.92 24.43 25.01 24.71 25.29C24.89 25.48 25 25.74 25 26C25 26.26 24.89 26.52 24.71 26.71ZM28.21 30.21C28.02 30.39 27.76 30.5 27.5 30.5C27.24 30.5 26.98 30.39 26.79 30.21C26.61 30.02 26.5 29.76 26.5 29.5C26.5 29.24 26.61 28.98 26.79 28.79C27.16 28.42 27.84 28.42 28.21 28.79C28.39 28.98 28.5 29.24 28.5 29.5C28.5 29.76 28.39 30.02 28.21 30.21ZM28.21 26.71L28.06 26.83C28 26.87 27.94 26.9 27.88 26.92C27.82 26.95 27.76 26.97 27.7 26.98C27.63 26.99 27.56 27 27.5 27C27.24 27 26.98 26.89 26.79 26.71C26.61 26.52 26.5 26.26 26.5 26C26.5 25.74 26.61 25.48 26.79 25.29C26.89 25.2 26.99 25.13 27.12 25.08C27.3 25 27.5 24.98 27.7 25.02C27.76 25.03 27.82 25.05 27.88 25.08C27.94 25.1 28 25.13 28.06 25.17L28.21 25.29C28.39 25.48 28.5 25.74 28.5 26C28.5 26.26 28.39 26.52 28.21 26.71Z" fill="#0E1D70"/>
<path d="M42.9787 29H41.348L45.0121 18.8182H46.7869L50.451 29H48.8203L45.9418 20.6676H45.8622L42.9787 29ZM43.2521 25.0128H48.5419V26.3054H43.2521V25.0128ZM54.8041 21.3636V22.5568H50.633V21.3636H54.8041ZM51.7516 19.5341H53.2381V26.7578C53.2381 27.0462 53.2812 27.2633 53.3673 27.4091C53.4535 27.5516 53.5646 27.6494 53.7004 27.7024C53.8397 27.7521 53.9905 27.777 54.1529 27.777C54.2722 27.777 54.3766 27.7687 54.4661 27.7521C54.5556 27.7356 54.6252 27.7223 54.6749 27.7124L54.9433 28.9403C54.8572 28.9735 54.7345 29.0066 54.5754 29.0398C54.4164 29.0762 54.2175 29.0961 53.9789 29.0994C53.5878 29.1061 53.2232 29.0365 52.8851 28.8906C52.547 28.7448 52.2736 28.5194 52.0648 28.2145C51.856 27.9096 51.7516 27.5268 51.7516 27.0661V19.5341ZM61.2019 25.8331V21.3636H62.6933V29H61.2317V27.6776H61.1521C60.9765 28.0852 60.6947 28.425 60.307 28.6967C59.9225 28.9652 59.4436 29.0994 58.8702 29.0994C58.3796 29.0994 57.9455 28.9917 57.5676 28.7763C57.1931 28.5575 56.8981 28.2344 56.6827 27.8068C56.4706 27.3793 56.3645 26.8506 56.3645 26.2209V21.3636H57.851V26.0419C57.851 26.5623 57.9952 26.9766 58.2835 27.2848C58.5719 27.593 58.9464 27.7472 59.4071 27.7472C59.6855 27.7472 59.9623 27.6776 60.2374 27.5384C60.5158 27.3991 60.7461 27.1887 60.9284 26.907C61.114 26.6252 61.2052 26.2673 61.2019 25.8331ZM64.6067 29V21.3636H66.0435V22.5767H66.123C66.2622 22.1657 66.5075 21.8426 66.8588 21.6072C67.2134 21.3686 67.6145 21.2493 68.0619 21.2493C68.1547 21.2493 68.2641 21.2526 68.39 21.2592C68.5193 21.2659 68.6204 21.2741 68.6933 21.2841V22.706C68.6337 22.6894 68.5276 22.6712 68.3751 22.6513C68.2227 22.6281 68.0702 22.6165 67.9177 22.6165C67.5664 22.6165 67.2532 22.6911 66.9781 22.8402C66.7063 22.986 66.4909 23.1899 66.3318 23.4517C66.1727 23.7102 66.0932 24.0052 66.0932 24.3366V29H64.6067ZM73.5168 21.3636H75.0033V29.4972C75.0033 30.0076 74.9105 30.4384 74.7249 30.7898C74.5426 31.1411 74.2708 31.4079 73.9095 31.5902C73.5516 31.7725 73.1091 31.8636 72.5821 31.8636C72.5291 31.8636 72.4794 31.8636 72.433 31.8636C72.3833 31.8636 72.3319 31.862 72.2789 31.8587V30.581C72.3253 30.581 72.3667 30.581 72.4032 30.581C72.4363 30.581 72.4744 30.581 72.5175 30.581C72.8688 30.581 73.1224 30.4865 73.2782 30.2976C73.4372 30.112 73.5168 29.8419 73.5168 29.4872V21.3636ZM74.2526 20.1854C73.9941 20.1854 73.772 20.0992 73.5864 19.9268C73.4041 19.7512 73.313 19.5424 73.313 19.3004C73.313 19.0552 73.4041 18.8464 73.5864 18.674C73.772 18.4983 73.9941 18.4105 74.2526 18.4105C74.5111 18.4105 74.7315 18.4983 74.9138 18.674C75.0994 18.8464 75.1922 19.0552 75.1922 19.3004C75.1922 19.5424 75.0994 19.7512 74.9138 19.9268C74.7315 20.0992 74.5111 20.1854 74.2526 20.1854ZM79.1414 29.169C78.6575 29.169 78.22 29.0795 77.8289 28.9006C77.4378 28.7183 77.1279 28.4548 76.8992 28.1101C76.6739 27.7654 76.5612 27.3428 76.5612 26.8423C76.5612 26.4115 76.644 26.0568 76.8097 25.7784C76.9755 25.5 77.1992 25.2796 77.4809 25.1172C77.7626 24.9548 78.0775 24.8321 78.4255 24.7493C78.7735 24.6664 79.1282 24.6035 79.4894 24.5604C79.9468 24.5073 80.318 24.4643 80.6031 24.4311C80.8881 24.3946 81.0953 24.3366 81.2245 24.2571C81.3538 24.1776 81.4184 24.0483 81.4184 23.8693V23.8345C81.4184 23.4003 81.2958 23.0639 81.0505 22.8253C80.8086 22.5866 80.4473 22.4673 79.9667 22.4673C79.4662 22.4673 79.0718 22.5784 78.7835 22.8004C78.4984 23.0192 78.3012 23.2628 78.1918 23.5312L76.7948 23.2131C76.9605 22.7491 77.2025 22.3745 77.5207 22.0895C77.8422 21.8011 78.2117 21.5923 78.6293 21.4631C79.047 21.3305 79.4861 21.2642 79.9468 21.2642C80.2517 21.2642 80.5749 21.3007 80.9163 21.3736C81.261 21.4432 81.5825 21.5724 81.8808 21.7614C82.1824 21.9503 82.4293 22.2204 82.6215 22.5717C82.8138 22.9197 82.9099 23.3722 82.9099 23.929V29H81.4582V27.956H81.3985C81.3024 28.1482 81.1582 28.3371 80.966 28.5227C80.7738 28.7083 80.5268 28.8625 80.2252 28.9851C79.9236 29.1077 79.5623 29.169 79.1414 29.169ZM79.4646 27.9759C79.8756 27.9759 80.2269 27.8946 80.5185 27.7322C80.8135 27.5698 81.0373 27.3577 81.1897 27.0959C81.3455 26.8307 81.4234 26.5473 81.4234 26.2457V25.2614C81.3703 25.3144 81.2676 25.3641 81.1151 25.4105C80.966 25.4536 80.7953 25.4917 80.6031 25.5249C80.4108 25.5547 80.2236 25.5829 80.0413 25.6094C79.859 25.6326 79.7065 25.6525 79.5839 25.669C79.2955 25.7055 79.032 25.7668 78.7934 25.853C78.5581 25.9392 78.3692 26.0634 78.2266 26.2259C78.0874 26.3849 78.0178 26.5971 78.0178 26.8622C78.0178 27.2301 78.1537 27.5085 78.4255 27.6974C78.6973 27.883 79.0436 27.9759 79.4646 27.9759ZM87.6645 29.1491C87.048 29.1491 86.4978 28.9917 86.0139 28.6768C85.5333 28.3587 85.1555 27.9062 84.8804 27.3196C84.6086 26.7296 84.4727 26.022 84.4727 25.1967C84.4727 24.3714 84.6103 23.6655 84.8854 23.0788C85.1638 22.4922 85.5449 22.0431 86.0288 21.7315C86.5127 21.42 87.0613 21.2642 87.6744 21.2642C88.1484 21.2642 88.5295 21.3438 88.8179 21.5028C89.1096 21.6586 89.3349 21.8409 89.494 22.0497C89.6564 22.2585 89.7824 22.4425 89.8719 22.6016H89.9614V18.8182H91.4479V29H89.9962V27.8118H89.8719C89.7824 27.9742 89.6531 28.1598 89.4841 28.3686C89.3184 28.5774 89.0897 28.7597 88.798 28.9155C88.5063 29.0713 88.1285 29.1491 87.6645 29.1491ZM87.9926 27.8814C88.4202 27.8814 88.7814 27.7687 89.0764 27.5433C89.3747 27.3146 89.6001 26.9981 89.7526 26.5938C89.9083 26.1894 89.9862 25.7187 89.9862 25.1818C89.9862 24.6515 89.91 24.1875 89.7575 23.7898C89.6051 23.392 89.3813 23.0821 89.0864 22.8601C88.7914 22.638 88.4268 22.527 87.9926 22.527C87.5452 22.527 87.1723 22.643 86.874 22.875C86.5757 23.107 86.3503 23.4235 86.1979 23.8246C86.0487 24.2256 85.9741 24.678 85.9741 25.1818C85.9741 25.6922 86.0504 26.1513 86.2028 26.5589C86.3553 26.9666 86.5807 27.2898 86.879 27.5284C87.1806 27.7637 87.5518 27.8814 87.9926 27.8814ZM95.141 29L92.8939 21.3636H94.4301L95.9265 26.9716H96.0011L97.5025 21.3636H99.0388L100.53 26.9467H100.605L102.091 21.3636H103.628L101.385 29H99.869L98.3179 23.4865H98.2035L96.6524 29H95.141ZM107.177 29.169C106.693 29.169 106.255 29.0795 105.864 28.9006C105.473 28.7183 105.163 28.4548 104.934 28.1101C104.709 27.7654 104.596 27.3428 104.596 26.8423C104.596 26.4115 104.679 26.0568 104.845 25.7784C105.011 25.5 105.234 25.2796 105.516 25.1172C105.798 24.9548 106.113 24.8321 106.461 24.7493C106.809 24.6664 107.163 24.6035 107.525 24.5604C107.982 24.5073 108.353 24.4643 108.638 24.4311C108.923 24.3946 109.13 24.3366 109.26 24.2571C109.389 24.1776 109.454 24.0483 109.454 23.8693V23.8345C109.454 23.4003 109.331 23.0639 109.086 22.8253C108.844 22.5866 108.482 22.4673 108.002 22.4673C107.501 22.4673 107.107 22.5784 106.819 22.8004C106.534 23.0192 106.336 23.2628 106.227 23.5312L104.83 23.2131C104.996 22.7491 105.238 22.3745 105.556 22.0895C105.877 21.8011 106.247 21.5923 106.664 21.4631C107.082 21.3305 107.521 21.2642 107.982 21.2642C108.287 21.2642 108.61 21.3007 108.951 21.3736C109.296 21.4432 109.618 21.5724 109.916 21.7614C110.217 21.9503 110.464 22.2204 110.657 22.5717C110.849 22.9197 110.945 23.3722 110.945 23.929V29H109.493V27.956H109.434C109.338 28.1482 109.193 28.3371 109.001 28.5227C108.809 28.7083 108.562 28.8625 108.26 28.9851C107.959 29.1077 107.597 29.169 107.177 29.169ZM107.5 27.9759C107.911 27.9759 108.262 27.8946 108.554 27.7322C108.849 27.5698 109.072 27.3577 109.225 27.0959C109.381 26.8307 109.458 26.5473 109.458 26.2457V25.2614C109.405 25.3144 109.303 25.3641 109.15 25.4105C109.001 25.4536 108.83 25.4917 108.638 25.5249C108.446 25.5547 108.259 25.5829 108.076 25.6094C107.894 25.6326 107.742 25.6525 107.619 25.669C107.331 25.7055 107.067 25.7668 106.829 25.853C106.593 25.9392 106.404 26.0634 106.262 26.2259C106.123 26.3849 106.053 26.5971 106.053 26.8622C106.053 27.2301 106.189 27.5085 106.461 27.6974C106.732 27.883 107.079 27.9759 107.5 27.9759ZM114.327 18.8182V29H112.841V18.8182H114.327Z" fill="#0E1D70"/>
</svg>
