<svg width="1227" height="383" viewBox="0 0 1227 383" fill="none" xmlns="http://www.w3.org/2000/svg">
<line x1="0.873818" y1="19.9025" x2="1142.1" y2="19.9025" stroke="black" stroke-opacity="0.05" stroke-width="1.27303" stroke-linecap="round"/>
<line x1="0.873818" y1="125.036" x2="1142.1" y2="125.036" stroke="black" stroke-opacity="0.05" stroke-width="1.27303" stroke-linecap="round"/>
<line x1="0.873818" y1="230.17" x2="1142.1" y2="230.17" stroke="black" stroke-opacity="0.05" stroke-width="1.27303" stroke-linecap="round"/>
<line x1="0.873818" y1="335.304" x2="1142.1" y2="335.304" stroke="black" stroke-opacity="0.2" stroke-width="1.27303" stroke-linecap="round"/>
<path d="M79.022 368.217V367.24L82.6892 363.226C83.1195 362.756 83.4739 362.347 83.7524 362C84.0309 361.649 84.237 361.32 84.3709 361.013C84.5083 360.702 84.577 360.376 84.577 360.036C84.577 359.646 84.483 359.307 84.2949 359.022C84.1105 358.736 83.8573 358.515 83.5354 358.36C83.2136 358.204 82.8519 358.127 82.4505 358.127C82.0237 358.127 81.6512 358.215 81.333 358.392C81.0183 358.566 80.7742 358.81 80.6006 359.125C80.4306 359.439 80.3456 359.808 80.3456 360.231H79.0654C79.0654 359.58 79.2155 359.009 79.5156 358.517C79.8158 358.025 80.2245 357.642 80.7416 357.367C81.2624 357.092 81.8465 356.955 82.4939 356.955C83.1448 356.955 83.7217 357.092 84.2244 357.367C84.7271 357.642 85.1213 358.013 85.407 358.479C85.6927 358.946 85.8356 359.465 85.8356 360.036C85.8356 360.445 85.7614 360.844 85.6131 361.235C85.4685 361.622 85.2153 362.054 84.8537 362.532C84.4956 363.005 83.9983 363.584 83.3618 364.268L80.8664 366.937V367.023H86.0309V368.217H79.022ZM91.8951 368.369C91.0777 368.369 90.3816 368.146 89.8065 367.701C89.2315 367.253 88.7921 366.604 88.4883 365.754C88.1845 364.9 88.0326 363.87 88.0326 362.662C88.0326 361.461 88.1845 360.436 88.4883 359.586C88.7957 358.732 89.2369 358.081 89.812 357.633C90.3906 357.181 91.085 356.955 91.8951 356.955C92.7052 356.955 93.3978 357.181 93.9728 357.633C94.5514 358.081 94.9927 358.732 95.2965 359.586C95.6039 360.436 95.7576 361.461 95.7576 362.662C95.7576 363.87 95.6057 364.9 95.3019 365.754C94.9981 366.604 94.5587 367.253 93.9836 367.701C93.4086 368.146 92.7124 368.369 91.8951 368.369ZM91.8951 367.175C92.7052 367.175 93.3345 366.785 93.7829 366.003C94.2314 365.222 94.4556 364.108 94.4556 362.662C94.4556 361.7 94.3525 360.881 94.1464 360.204C93.9439 359.528 93.6509 359.013 93.2676 358.658C92.8878 358.304 92.4303 358.127 91.8951 358.127C91.0922 358.127 90.4647 358.523 90.0127 359.315C89.5606 360.103 89.3346 361.219 89.3346 362.662C89.3346 363.624 89.4358 364.441 89.6384 365.114C89.8409 365.786 90.132 366.298 90.5118 366.649C90.8951 367 91.3562 367.175 91.8951 367.175ZM101.725 357.107V368.217H100.38V358.517H100.314L97.602 360.318V358.951L100.38 357.107H101.725ZM104.92 368.217V367.24L108.587 363.226C109.018 362.756 109.372 362.347 109.651 362C109.929 361.649 110.135 361.32 110.269 361.013C110.406 360.702 110.475 360.376 110.475 360.036C110.475 359.646 110.381 359.307 110.193 359.022C110.009 358.736 109.755 358.515 109.434 358.36C109.112 358.204 108.75 358.127 108.349 358.127C107.922 358.127 107.549 358.215 107.231 358.392C106.916 358.566 106.672 358.81 106.499 359.125C106.329 359.439 106.244 359.808 106.244 360.231H104.963C104.963 359.58 105.114 359.009 105.414 358.517C105.714 358.025 106.123 357.642 106.64 357.367C107.161 357.092 107.745 356.955 108.392 356.955C109.043 356.955 109.62 357.092 110.123 357.367C110.625 357.642 111.019 358.013 111.305 358.479C111.591 358.946 111.734 359.465 111.734 360.036C111.734 360.445 111.66 360.844 111.511 361.235C111.367 361.622 111.113 362.054 110.752 362.532C110.394 363.005 109.896 363.584 109.26 364.268L106.765 366.937V367.023H111.929V368.217H104.92Z" fill="black" fill-opacity="0.4"/>
<path d="M269.163 368.217V367.24L272.83 363.226C273.26 362.756 273.615 362.347 273.893 362C274.172 361.649 274.378 361.32 274.512 361.013C274.649 360.702 274.718 360.376 274.718 360.036C274.718 359.646 274.624 359.307 274.436 359.022C274.251 358.736 273.998 358.515 273.676 358.36C273.354 358.204 272.993 358.127 272.591 358.127C272.164 358.127 271.792 358.215 271.474 358.392C271.159 358.566 270.915 358.81 270.741 359.125C270.571 359.439 270.486 359.808 270.486 360.231H269.206C269.206 359.58 269.356 359.009 269.656 358.517C269.957 358.025 270.365 357.642 270.882 357.367C271.403 357.092 271.987 356.955 272.635 356.955C273.286 356.955 273.862 357.092 274.365 357.367C274.868 357.642 275.262 358.013 275.548 358.479C275.833 358.946 275.976 359.465 275.976 360.036C275.976 360.445 275.902 360.844 275.754 361.235C275.609 361.622 275.356 362.054 274.994 362.532C274.636 363.005 274.139 363.584 273.503 364.268L271.007 366.937V367.023H276.172V368.217H269.163ZM282.036 368.369C281.219 368.369 280.522 368.146 279.947 367.701C279.372 367.253 278.933 366.604 278.629 365.754C278.325 364.9 278.173 363.87 278.173 362.662C278.173 361.461 278.325 360.436 278.629 359.586C278.936 358.732 279.378 358.081 279.953 357.633C280.531 357.181 281.226 356.955 282.036 356.955C282.846 356.955 283.539 357.181 284.114 357.633C284.692 358.081 285.133 358.732 285.437 359.586C285.745 360.436 285.898 361.461 285.898 362.662C285.898 363.87 285.746 364.9 285.443 365.754C285.139 366.604 284.699 367.253 284.124 367.701C283.549 368.146 282.853 368.369 282.036 368.369ZM282.036 367.175C282.846 367.175 283.475 366.785 283.924 366.003C284.372 365.222 284.596 364.108 284.596 362.662C284.596 361.7 284.493 360.881 284.287 360.204C284.085 359.528 283.792 359.013 283.408 358.658C283.029 358.304 282.571 358.127 282.036 358.127C281.233 358.127 280.606 358.523 280.153 359.315C279.701 360.103 279.475 361.219 279.475 362.662C279.475 363.624 279.577 364.441 279.779 365.114C279.982 365.786 280.273 366.298 280.653 366.649C281.036 367 281.497 367.175 282.036 367.175ZM291.866 357.107V368.217H290.52V358.517H290.455L287.743 360.318V358.951L290.52 357.107H291.866ZM294.8 365.938V364.832L299.683 357.107H300.486V358.821H299.943L296.254 364.658V364.745H302.829V365.938H294.8ZM300.03 368.217V365.602V365.087V357.107H301.31V368.217H300.03Z" fill="black" fill-opacity="0.4"/>
<path d="M459.773 368.217V367.24L463.44 363.226C463.871 362.756 464.225 362.347 464.504 362C464.782 361.649 464.988 361.32 465.122 361.013C465.259 360.702 465.328 360.376 465.328 360.036C465.328 359.646 465.234 359.307 465.046 359.022C464.862 358.736 464.609 358.515 464.287 358.36C463.965 358.204 463.603 358.127 463.202 358.127C462.775 358.127 462.402 358.215 462.084 358.392C461.77 358.566 461.525 358.81 461.352 359.125C461.182 359.439 461.097 359.808 461.097 360.231H459.817C459.817 359.58 459.967 359.009 460.267 358.517C460.567 358.025 460.976 357.642 461.493 357.367C462.014 357.092 462.598 356.955 463.245 356.955C463.896 356.955 464.473 357.092 464.976 357.367C465.478 357.642 465.872 358.013 466.158 358.479C466.444 358.946 466.587 359.465 466.587 360.036C466.587 360.445 466.513 360.844 466.364 361.235C466.22 361.622 465.967 362.054 465.605 362.532C465.247 363.005 464.75 363.584 464.113 364.268L461.618 366.937V367.023H466.782V368.217H459.773ZM472.646 368.369C471.829 368.369 471.133 368.146 470.558 367.701C469.983 367.253 469.543 366.604 469.239 365.754C468.936 364.9 468.784 363.87 468.784 362.662C468.784 361.461 468.936 360.436 469.239 359.586C469.547 358.732 469.988 358.081 470.563 357.633C471.142 357.181 471.836 356.955 472.646 356.955C473.456 356.955 474.149 357.181 474.724 357.633C475.303 358.081 475.744 358.732 476.048 359.586C476.355 360.436 476.509 361.461 476.509 362.662C476.509 363.87 476.357 364.9 476.053 365.754C475.749 366.604 475.31 367.253 474.735 367.701C474.16 368.146 473.464 368.369 472.646 368.369ZM472.646 367.175C473.456 367.175 474.086 366.785 474.534 366.003C474.983 365.222 475.207 364.108 475.207 362.662C475.207 361.7 475.104 360.881 474.898 360.204C474.695 359.528 474.402 359.013 474.019 358.658C473.639 358.304 473.182 358.127 472.646 358.127C471.843 358.127 471.216 358.523 470.764 359.315C470.312 360.103 470.086 361.219 470.086 362.662C470.086 363.624 470.187 364.441 470.39 365.114C470.592 365.786 470.883 366.298 471.263 366.649C471.646 367 472.107 367.175 472.646 367.175ZM482.476 357.107V368.217H481.131V358.517H481.066L478.353 360.318V358.951L481.131 357.107H482.476ZM489.23 368.369C488.485 368.369 487.827 368.237 487.255 367.973C486.688 367.705 486.245 367.338 485.926 366.871C485.608 366.401 485.451 365.866 485.454 365.266C485.451 364.796 485.543 364.362 485.731 363.964C485.919 363.562 486.176 363.228 486.501 362.96C486.83 362.689 487.197 362.517 487.603 362.445V362.38C487.071 362.242 486.648 361.944 486.333 361.485C486.018 361.022 485.863 360.495 485.867 359.906C485.863 359.342 486.006 358.837 486.295 358.392C486.584 357.948 486.982 357.597 487.489 357.34C487.999 357.083 488.579 356.955 489.23 356.955C489.874 356.955 490.449 357.083 490.955 357.34C491.461 357.597 491.859 357.948 492.149 358.392C492.441 358.837 492.59 359.342 492.593 359.906C492.59 360.495 492.429 361.022 492.111 361.485C491.796 361.944 491.378 362.242 490.857 362.38V362.445C491.259 362.517 491.621 362.689 491.942 362.96C492.264 363.228 492.521 363.562 492.713 363.964C492.904 364.362 493.002 364.796 493.006 365.266C493.002 365.866 492.839 366.401 492.517 366.871C492.199 367.338 491.756 367.705 491.188 367.973C490.624 368.237 489.971 368.369 489.23 368.369ZM489.23 367.175C489.733 367.175 490.167 367.094 490.532 366.931C490.897 366.768 491.179 366.539 491.378 366.242C491.577 365.946 491.678 365.598 491.682 365.201C491.678 364.781 491.57 364.41 491.357 364.089C491.143 363.767 490.852 363.513 490.483 363.329C490.118 363.145 489.7 363.052 489.23 363.052C488.756 363.052 488.333 363.145 487.961 363.329C487.592 363.513 487.301 363.767 487.087 364.089C486.877 364.41 486.774 364.781 486.778 365.201C486.774 365.598 486.87 365.946 487.065 366.242C487.264 366.539 487.548 366.768 487.917 366.931C488.286 367.094 488.724 367.175 489.23 367.175ZM489.23 361.902C489.628 361.902 489.98 361.823 490.288 361.664C490.599 361.504 490.843 361.282 491.02 360.996C491.197 360.711 491.288 360.376 491.291 359.993C491.288 359.617 491.199 359.289 491.026 359.011C490.852 358.729 490.612 358.512 490.304 358.36C489.997 358.204 489.639 358.127 489.23 358.127C488.814 358.127 488.451 358.204 488.14 358.36C487.829 358.512 487.588 358.729 487.418 359.011C487.248 359.289 487.165 359.617 487.169 359.993C487.165 360.376 487.25 360.711 487.424 360.996C487.601 361.282 487.845 361.504 488.156 361.664C488.467 361.823 488.825 361.902 489.23 361.902Z" fill="black" fill-opacity="0.4"/>
<path d="M649.198 368.217V367.24L652.865 363.226C653.295 362.756 653.65 362.347 653.928 362C654.207 361.649 654.413 361.32 654.547 361.013C654.684 360.702 654.753 360.376 654.753 360.036C654.753 359.646 654.659 359.307 654.471 359.022C654.286 358.736 654.033 358.515 653.711 358.36C653.389 358.204 653.028 358.127 652.626 358.127C652.2 358.127 651.827 358.215 651.509 358.392C651.194 358.566 650.95 358.81 650.776 359.125C650.607 359.439 650.522 359.808 650.522 360.231H649.241C649.241 359.58 649.391 359.009 649.692 358.517C649.992 358.025 650.4 357.642 650.918 357.367C651.438 357.092 652.022 356.955 652.67 356.955C653.321 356.955 653.898 357.092 654.4 357.367C654.903 357.642 655.297 358.013 655.583 358.479C655.869 358.946 656.011 359.465 656.011 360.036C656.011 360.445 655.937 360.844 655.789 361.235C655.644 361.622 655.391 362.054 655.03 362.532C654.672 363.005 654.174 363.584 653.538 364.268L651.042 366.937V367.023H656.207V368.217H649.198ZM662.071 368.369C661.254 368.369 660.557 368.146 659.982 367.701C659.407 367.253 658.968 366.604 658.664 365.754C658.36 364.9 658.208 363.87 658.208 362.662C658.208 361.461 658.36 360.436 658.664 359.586C658.972 358.732 659.413 358.081 659.988 357.633C660.566 357.181 661.261 356.955 662.071 356.955C662.881 356.955 663.574 357.181 664.149 357.633C664.727 358.081 665.169 358.732 665.472 359.586C665.78 360.436 665.933 361.461 665.933 362.662C665.933 363.87 665.782 364.9 665.478 365.754C665.174 366.604 664.735 367.253 664.16 367.701C663.584 368.146 662.888 368.369 662.071 368.369ZM662.071 367.175C662.881 367.175 663.51 366.785 663.959 366.003C664.407 365.222 664.631 364.108 664.631 362.662C664.631 361.7 664.528 360.881 664.322 360.204C664.12 359.528 663.827 359.013 663.443 358.658C663.064 358.304 662.606 358.127 662.071 358.127C661.268 358.127 660.641 358.523 660.189 359.315C659.736 360.103 659.51 361.219 659.51 362.662C659.51 363.624 659.612 364.441 659.814 365.114C660.017 365.786 660.308 366.298 660.688 366.649C661.071 367 661.532 367.175 662.071 367.175ZM667.995 368.217V367.24L671.662 363.226C672.092 362.756 672.447 362.347 672.725 362C673.004 361.649 673.21 361.32 673.344 361.013C673.481 360.702 673.55 360.376 673.55 360.036C673.55 359.646 673.456 359.307 673.268 359.022C673.083 358.736 672.83 358.515 672.508 358.36C672.186 358.204 671.825 358.127 671.423 358.127C670.997 358.127 670.624 358.215 670.306 358.392C669.991 358.566 669.747 358.81 669.574 359.125C669.404 359.439 669.319 359.808 669.319 360.231H668.038C668.038 359.58 668.188 359.009 668.489 358.517C668.789 358.025 669.197 357.642 669.715 357.367C670.235 357.092 670.819 356.955 671.467 356.955C672.118 356.955 672.695 357.092 673.197 357.367C673.7 357.642 674.094 358.013 674.38 358.479C674.666 358.946 674.808 359.465 674.808 360.036C674.808 360.445 674.734 360.844 674.586 361.235C674.441 361.622 674.188 362.054 673.827 362.532C673.469 363.005 672.971 363.584 672.335 364.268L669.839 366.937V367.023H675.004V368.217H667.995ZM677.244 368.217V367.24L680.911 363.226C681.342 362.756 681.696 362.347 681.975 362C682.253 361.649 682.459 361.32 682.593 361.013C682.731 360.702 682.799 360.376 682.799 360.036C682.799 359.646 682.705 359.307 682.517 359.022C682.333 358.736 682.08 358.515 681.758 358.36C681.436 358.204 681.074 358.127 680.673 358.127C680.246 358.127 679.873 358.215 679.555 358.392C679.241 358.566 678.996 358.81 678.823 359.125C678.653 359.439 678.568 359.808 678.568 360.231H677.288C677.288 359.58 677.438 359.009 677.738 358.517C678.038 358.025 678.447 357.642 678.964 357.367C679.485 357.092 680.069 356.955 680.716 356.955C681.367 356.955 681.944 357.092 682.447 357.367C682.949 357.642 683.344 358.013 683.629 358.479C683.915 358.946 684.058 359.465 684.058 360.036C684.058 360.445 683.984 360.844 683.835 361.235C683.691 361.622 683.438 362.054 683.076 362.532C682.718 363.005 682.221 363.584 681.584 364.268L679.089 366.937V367.023H684.253V368.217H677.244Z" fill="black" fill-opacity="0.4"/>
<path d="M839.473 368.217V367.24L843.14 363.226C843.57 362.756 843.925 362.347 844.203 362C844.482 361.649 844.688 361.32 844.822 361.013C844.959 360.702 845.028 360.376 845.028 360.036C845.028 359.646 844.934 359.307 844.746 359.022C844.561 358.736 844.308 358.515 843.986 358.36C843.664 358.204 843.303 358.127 842.901 358.127C842.475 358.127 842.102 358.215 841.784 358.392C841.469 358.566 841.225 358.81 841.052 359.125C840.882 359.439 840.797 359.808 840.797 360.231H839.516C839.516 359.58 839.666 359.009 839.967 358.517C840.267 358.025 840.675 357.642 841.193 357.367C841.713 357.092 842.297 356.955 842.945 356.955C843.596 356.955 844.173 357.092 844.675 357.367C845.178 357.642 845.572 358.013 845.858 358.479C846.144 358.946 846.286 359.465 846.286 360.036C846.286 360.445 846.212 360.844 846.064 361.235C845.919 361.622 845.666 362.054 845.305 362.532C844.947 363.005 844.449 363.584 843.813 364.268L841.317 366.937V367.023H846.482V368.217H839.473ZM852.346 368.369C851.529 368.369 850.832 368.146 850.257 367.701C849.682 367.253 849.243 366.604 848.939 365.754C848.635 364.9 848.484 363.87 848.484 362.662C848.484 361.461 848.635 360.436 848.939 359.586C849.247 358.732 849.688 358.081 850.263 357.633C850.842 357.181 851.536 356.955 852.346 356.955C853.156 356.955 853.849 357.181 854.424 357.633C855.002 358.081 855.444 358.732 855.747 359.586C856.055 360.436 856.208 361.461 856.208 362.662C856.208 363.87 856.057 364.9 855.753 365.754C855.449 366.604 855.01 367.253 854.435 367.701C853.86 368.146 853.163 368.369 852.346 368.369ZM852.346 367.175C853.156 367.175 853.785 366.785 854.234 366.003C854.682 365.222 854.907 364.108 854.907 362.662C854.907 361.7 854.803 360.881 854.597 360.204C854.395 359.528 854.102 359.013 853.718 358.658C853.339 358.304 852.881 358.127 852.346 358.127C851.543 358.127 850.916 358.523 850.464 359.315C850.012 360.103 849.785 361.219 849.785 362.662C849.785 363.624 849.887 364.441 850.089 365.114C850.292 365.786 850.583 366.298 850.963 366.649C851.346 367 851.807 367.175 852.346 367.175ZM858.27 368.217V367.24L861.937 363.226C862.367 362.756 862.722 362.347 863 362C863.279 361.649 863.485 361.32 863.619 361.013C863.756 360.702 863.825 360.376 863.825 360.036C863.825 359.646 863.731 359.307 863.543 359.022C863.358 358.736 863.105 358.515 862.783 358.36C862.461 358.204 862.1 358.127 861.698 358.127C861.272 358.127 860.899 358.215 860.581 358.392C860.266 358.566 860.022 358.81 859.849 359.125C859.679 359.439 859.594 359.808 859.594 360.231H858.313C858.313 359.58 858.463 359.009 858.764 358.517C859.064 358.025 859.472 357.642 859.99 357.367C860.51 357.092 861.094 356.955 861.742 356.955C862.393 356.955 862.97 357.092 863.472 357.367C863.975 357.642 864.369 358.013 864.655 358.479C864.941 358.946 865.083 359.465 865.083 360.036C865.083 360.445 865.009 360.844 864.861 361.235C864.716 361.622 864.463 362.054 864.102 362.532C863.744 363.005 863.246 363.584 862.61 364.268L860.114 366.937V367.023H865.279V368.217H858.27ZM871.208 368.369C870.752 368.361 870.297 368.275 869.841 368.108C869.385 367.942 868.969 367.662 868.593 367.267C868.217 366.87 867.915 366.333 867.687 365.656C867.46 364.976 867.346 364.123 867.346 363.096C867.346 362.112 867.438 361.24 867.622 360.481C867.807 359.718 868.074 359.076 868.425 358.555C868.776 358.031 869.199 357.633 869.695 357.362C870.194 357.09 870.756 356.955 871.382 356.955C872.004 356.955 872.557 357.08 873.042 357.329C873.53 357.575 873.928 357.919 874.235 358.36C874.543 358.801 874.741 359.309 874.832 359.884H873.508C873.385 359.385 873.147 358.971 872.792 358.642C872.438 358.313 871.968 358.148 871.382 358.148C870.521 358.148 869.843 358.523 869.347 359.271C868.856 360.02 868.608 361.07 868.604 362.423H868.691C868.894 362.116 869.134 361.853 869.412 361.636C869.695 361.416 870.006 361.246 870.346 361.127C870.686 361.007 871.045 360.948 871.425 360.948C872.062 360.948 872.644 361.107 873.172 361.425C873.7 361.74 874.123 362.175 874.441 362.732C874.76 363.286 874.919 363.92 874.919 364.636C874.919 365.324 874.765 365.953 874.458 366.524C874.15 367.092 873.718 367.544 873.161 367.88C872.608 368.213 871.957 368.376 871.208 368.369ZM871.208 367.175C871.664 367.175 872.072 367.061 872.434 366.833C872.799 366.606 873.087 366.3 873.297 365.917C873.51 365.533 873.617 365.107 873.617 364.636C873.617 364.177 873.514 363.759 873.308 363.383C873.105 363.004 872.825 362.702 872.467 362.477C872.112 362.253 871.707 362.141 871.252 362.141C870.908 362.141 870.588 362.21 870.291 362.347C869.995 362.481 869.734 362.665 869.51 362.9C869.29 363.136 869.116 363.405 868.989 363.709C868.863 364.009 868.799 364.325 868.799 364.658C868.799 365.099 868.903 365.512 869.109 365.895C869.318 366.278 869.604 366.588 869.966 366.823C870.331 367.058 870.745 367.175 871.208 367.175Z" fill="black" fill-opacity="0.4"/>
<path d="M1029.64 368.217V367.24L1033.31 363.226C1033.74 362.756 1034.1 362.347 1034.37 362C1034.65 361.649 1034.86 361.32 1034.99 361.013C1035.13 360.702 1035.2 360.376 1035.2 360.036C1035.2 359.646 1035.1 359.307 1034.92 359.022C1034.73 358.736 1034.48 358.515 1034.16 358.36C1033.84 358.204 1033.47 358.127 1033.07 358.127C1032.65 358.127 1032.27 358.215 1031.95 358.392C1031.64 358.566 1031.4 358.81 1031.22 359.125C1031.05 359.439 1030.97 359.808 1030.97 360.231H1029.69C1029.69 359.58 1029.84 359.009 1030.14 358.517C1030.44 358.025 1030.85 357.642 1031.36 357.367C1031.88 357.092 1032.47 356.955 1033.12 356.955C1033.77 356.955 1034.34 357.092 1034.85 357.367C1035.35 357.642 1035.74 358.013 1036.03 358.479C1036.31 358.946 1036.46 359.465 1036.46 360.036C1036.46 360.445 1036.38 360.844 1036.23 361.235C1036.09 361.622 1035.84 362.054 1035.48 362.532C1035.12 363.005 1034.62 363.584 1033.98 364.268L1031.49 366.937V367.023H1036.65V368.217H1029.64ZM1042.52 368.369C1041.7 368.369 1041 368.146 1040.43 367.701C1039.85 367.253 1039.41 366.604 1039.11 365.754C1038.81 364.9 1038.65 363.87 1038.65 362.662C1038.65 361.461 1038.81 360.436 1039.11 359.586C1039.42 358.732 1039.86 358.081 1040.43 357.633C1041.01 357.181 1041.71 356.955 1042.52 356.955C1043.33 356.955 1044.02 357.181 1044.59 357.633C1045.17 358.081 1045.61 358.732 1045.92 359.586C1046.23 360.436 1046.38 361.461 1046.38 362.662C1046.38 363.87 1046.23 364.9 1045.92 365.754C1045.62 366.604 1045.18 367.253 1044.61 367.701C1044.03 368.146 1043.33 368.369 1042.52 368.369ZM1042.52 367.175C1043.33 367.175 1043.96 366.785 1044.4 366.003C1044.85 365.222 1045.08 364.108 1045.08 362.662C1045.08 361.7 1044.97 360.881 1044.77 360.204C1044.57 359.528 1044.27 359.013 1043.89 358.658C1043.51 358.304 1043.05 358.127 1042.52 358.127C1041.71 358.127 1041.09 358.523 1040.63 359.315C1040.18 360.103 1039.96 361.219 1039.96 362.662C1039.96 363.624 1040.06 364.441 1040.26 365.114C1040.46 365.786 1040.75 366.298 1041.13 366.649C1041.52 367 1041.98 367.175 1042.52 367.175ZM1052.19 368.369C1051.48 368.369 1050.84 368.246 1050.28 368C1049.72 367.754 1049.28 367.412 1048.95 366.975C1048.62 366.533 1048.45 366.022 1048.42 365.439H1049.79C1049.81 365.797 1049.94 366.107 1050.15 366.367C1050.37 366.624 1050.66 366.823 1051.01 366.964C1051.36 367.105 1051.75 367.175 1052.17 367.175C1052.65 367.175 1053.07 367.092 1053.44 366.926C1053.81 366.759 1054.1 366.528 1054.31 366.231C1054.52 365.935 1054.62 365.591 1054.62 365.201C1054.62 364.792 1054.52 364.432 1054.32 364.121C1054.12 363.806 1053.82 363.56 1053.43 363.383C1053.04 363.206 1052.56 363.117 1052 363.117H1051.11V361.924H1052C1052.44 361.924 1052.83 361.844 1053.16 361.685C1053.5 361.526 1053.76 361.302 1053.95 361.013C1054.14 360.723 1054.23 360.383 1054.23 359.993C1054.23 359.617 1054.15 359.289 1053.98 359.011C1053.82 358.732 1053.58 358.515 1053.28 358.36C1052.98 358.204 1052.62 358.127 1052.22 358.127C1051.83 358.127 1051.47 358.197 1051.13 358.338C1050.79 358.476 1050.52 358.676 1050.31 358.94C1050.09 359.201 1049.98 359.515 1049.96 359.884H1048.66C1048.68 359.302 1048.85 358.792 1049.18 358.354C1049.51 357.913 1049.94 357.57 1050.47 357.324C1051.01 357.078 1051.6 356.955 1052.24 356.955C1052.93 356.955 1053.51 357.094 1054.01 357.373C1054.5 357.647 1054.88 358.011 1055.14 358.463C1055.4 358.915 1055.54 359.403 1055.54 359.928C1055.54 360.553 1055.37 361.087 1055.04 361.528C1054.72 361.969 1054.27 362.275 1053.71 362.445V362.532C1054.42 362.647 1054.96 362.946 1055.36 363.427C1055.75 363.904 1055.95 364.495 1055.95 365.201C1055.95 365.805 1055.78 366.347 1055.45 366.828C1055.13 367.305 1054.68 367.682 1054.12 367.956C1053.56 368.231 1052.91 368.369 1052.19 368.369ZM1061.79 368.369C1060.97 368.369 1060.28 368.146 1059.7 367.701C1059.13 367.253 1058.69 366.604 1058.38 365.754C1058.08 364.9 1057.93 363.87 1057.93 362.662C1057.93 361.461 1058.08 360.436 1058.38 359.586C1058.69 358.732 1059.13 358.081 1059.71 357.633C1060.29 357.181 1060.98 356.955 1061.79 356.955C1062.6 356.955 1063.29 357.181 1063.87 357.633C1064.45 358.081 1064.89 358.732 1065.19 359.586C1065.5 360.436 1065.65 361.461 1065.65 362.662C1065.65 363.87 1065.5 364.9 1065.2 365.754C1064.89 366.604 1064.45 367.253 1063.88 367.701C1063.3 368.146 1062.61 368.369 1061.79 368.369ZM1061.79 367.175C1062.6 367.175 1063.23 366.785 1063.68 366.003C1064.13 365.222 1064.35 364.108 1064.35 362.662C1064.35 361.7 1064.25 360.881 1064.04 360.204C1063.84 359.528 1063.55 359.013 1063.16 358.658C1062.78 358.304 1062.33 358.127 1061.79 358.127C1060.99 358.127 1060.36 358.523 1059.91 359.315C1059.46 360.103 1059.23 361.219 1059.23 362.662C1059.23 363.624 1059.33 364.441 1059.53 365.114C1059.74 365.786 1060.03 366.298 1060.41 366.649C1060.79 367 1061.25 367.175 1061.79 367.175Z" fill="black" fill-opacity="0.4"/>
<path d="M1165.25 17.1709V6.06085H1169.01C1169.88 6.06085 1170.59 6.20913 1171.14 6.50569C1171.7 6.79863 1172.11 7.20187 1172.38 7.71542C1172.65 8.22897 1172.78 8.81305 1172.78 9.46764C1172.78 10.1222 1172.65 10.7027 1172.38 11.209C1172.11 11.7153 1171.7 12.1132 1171.15 12.4025C1170.6 12.6882 1169.89 12.831 1169.03 12.831H1165.99V11.6159H1168.99C1169.58 11.6159 1170.06 11.5291 1170.42 11.3555C1170.78 11.1819 1171.05 10.936 1171.21 10.6177C1171.38 10.2958 1171.46 9.91248 1171.46 9.46764C1171.46 9.02281 1171.38 8.63403 1171.21 8.3013C1171.04 7.96858 1170.78 7.71181 1170.41 7.53098C1170.05 7.34653 1169.56 7.25431 1168.96 7.25431H1166.6V17.1709H1165.25ZM1170.48 12.1801L1173.22 17.1709H1171.65L1168.96 12.1801H1170.48ZM1174.85 20.2956V8.83836H1176.09V10.162H1176.24C1176.33 10.0174 1176.46 9.83291 1176.63 9.60869C1176.8 9.38085 1177.04 9.17832 1177.36 9.00111C1177.68 8.82028 1178.11 8.72987 1178.65 8.72987C1179.35 8.72987 1179.97 8.90527 1180.5 9.25607C1181.04 9.60688 1181.46 10.1042 1181.76 10.7479C1182.06 11.3916 1182.21 12.1511 1182.21 13.0263C1182.21 13.9088 1182.06 14.6737 1181.76 15.321C1181.46 15.9648 1181.04 16.4639 1180.51 16.8183C1179.98 17.1691 1179.36 17.3445 1178.67 17.3445C1178.13 17.3445 1177.71 17.2559 1177.38 17.0787C1177.06 16.8978 1176.81 16.6935 1176.64 16.4657C1176.47 16.2342 1176.33 16.0425 1176.24 15.8906H1176.13V20.2956H1174.85ZM1176.11 13.0046C1176.11 13.6339 1176.2 14.1891 1176.39 14.6701C1176.57 15.1474 1176.84 15.5218 1177.19 15.793C1177.55 16.0606 1177.98 16.1944 1178.5 16.1944C1179.03 16.1944 1179.48 16.0534 1179.84 15.7713C1180.2 15.4856 1180.47 15.1022 1180.65 14.6212C1180.83 14.1366 1180.93 13.5977 1180.93 13.0046C1180.93 12.4187 1180.84 11.8907 1180.66 11.4206C1180.48 10.9468 1180.21 10.5725 1179.85 10.2976C1179.49 10.0192 1179.04 9.87993 1178.5 9.87993C1177.98 9.87993 1177.54 10.0119 1177.18 10.2759C1176.83 10.5363 1176.56 10.9016 1176.38 11.3718C1176.2 11.8383 1176.11 12.3826 1176.11 13.0046ZM1185.09 17.2577C1184.83 17.2577 1184.6 17.1619 1184.4 16.9702C1184.21 16.7785 1184.12 16.5489 1184.12 16.2812C1184.12 16.0136 1184.21 15.784 1184.4 15.5923C1184.6 15.4006 1184.83 15.3048 1185.09 15.3048C1185.36 15.3048 1185.59 15.4006 1185.78 15.5923C1185.97 15.784 1186.07 16.0136 1186.07 16.2812C1186.07 16.4584 1186.02 16.6212 1185.93 16.7695C1185.85 16.9177 1185.73 17.0371 1185.58 17.1275C1185.44 17.2143 1185.27 17.2577 1185.09 17.2577ZM1196.4 17.3228C1195.68 17.3228 1195.04 17.1998 1194.48 16.9539C1193.92 16.708 1193.48 16.3662 1193.15 15.9286C1192.83 15.4874 1192.65 14.9757 1192.62 14.3934H1193.99C1194.02 14.7514 1194.14 15.0606 1194.36 15.321C1194.57 15.5778 1194.86 15.7767 1195.21 15.9178C1195.56 16.0588 1195.95 16.1293 1196.37 16.1293C1196.85 16.1293 1197.27 16.0462 1197.64 15.8798C1198.01 15.7134 1198.3 15.482 1198.51 15.1854C1198.72 14.8889 1198.83 14.5453 1198.83 14.1547C1198.83 13.746 1198.72 13.3862 1198.52 13.0752C1198.32 12.7605 1198.02 12.5146 1197.63 12.3374C1197.24 12.1602 1196.76 12.0716 1196.2 12.0716H1195.31V10.8781H1196.2C1196.64 10.8781 1197.03 10.7985 1197.36 10.6394C1197.7 10.4803 1197.96 10.2561 1198.15 9.96673C1198.34 9.6774 1198.44 9.33745 1198.44 8.94686C1198.44 8.57074 1198.35 8.24344 1198.19 7.96496C1198.02 7.68649 1197.78 7.4695 1197.48 7.31399C1197.18 7.15847 1196.83 7.08072 1196.42 7.08072C1196.03 7.08072 1195.67 7.15124 1195.33 7.29229C1195 7.42972 1194.72 7.63043 1194.51 7.89444C1194.29 8.15483 1194.18 8.46947 1194.16 8.83836H1192.86C1192.88 8.2561 1193.06 7.74616 1193.39 7.30856C1193.71 6.86734 1194.14 6.52377 1194.68 6.27784C1195.21 6.03192 1195.8 5.90896 1196.44 5.90896C1197.13 5.90896 1197.72 6.04819 1198.21 6.32667C1198.7 6.60152 1199.08 6.96499 1199.34 7.41706C1199.61 7.86913 1199.74 8.35736 1199.74 8.88176C1199.74 9.50742 1199.57 10.0409 1199.24 10.4821C1198.92 10.9233 1198.48 11.2289 1197.91 11.3989V11.4857C1198.62 11.6014 1199.16 11.8998 1199.56 12.3808C1199.95 12.8582 1200.15 13.4495 1200.15 14.1547C1200.15 14.7587 1199.99 15.3011 1199.66 15.7821C1199.33 16.2595 1198.89 16.6356 1198.32 16.9105C1197.76 17.1854 1197.12 17.3228 1196.4 17.3228ZM1206.86 6.06085H1208.47L1212.24 15.2831H1212.37L1216.15 6.06085H1217.75V17.1709H1216.49V8.72987H1216.39L1212.91 17.1709H1211.7L1208.23 8.72987H1208.12V17.1709H1206.86V6.06085Z" fill="black" fill-opacity="0.4"/>
<path d="M1165.73 121.399V110.289H1169.48C1170.35 110.289 1171.07 110.438 1171.62 110.734C1172.18 111.027 1172.59 111.43 1172.86 111.944C1173.13 112.457 1173.26 113.042 1173.26 113.696C1173.26 114.351 1173.13 114.931 1172.86 115.438C1172.59 115.944 1172.18 116.342 1171.63 116.631C1171.07 116.917 1170.37 117.06 1169.51 117.06H1166.47V115.844H1169.46C1170.06 115.844 1170.53 115.758 1170.9 115.584C1171.26 115.41 1171.52 115.164 1171.69 114.846C1171.85 114.524 1171.94 114.141 1171.94 113.696C1171.94 113.251 1171.85 112.863 1171.69 112.53C1171.52 112.197 1171.25 111.94 1170.89 111.759C1170.52 111.575 1170.04 111.483 1169.44 111.483H1167.08V121.399H1165.73ZM1170.96 116.409L1173.69 121.399H1172.13L1169.44 116.409H1170.96ZM1175.33 124.524V113.067H1176.57V114.391H1176.72C1176.81 114.246 1176.94 114.061 1177.11 113.837C1177.28 113.609 1177.52 113.407 1177.83 113.23C1178.15 113.049 1178.58 112.958 1179.13 112.958C1179.83 112.958 1180.45 113.134 1180.98 113.485C1181.52 113.835 1181.93 114.333 1182.23 114.976C1182.53 115.62 1182.68 116.38 1182.68 117.255C1182.68 118.137 1182.53 118.902 1182.23 119.55C1181.93 120.193 1181.52 120.692 1180.99 121.047C1180.45 121.398 1179.84 121.573 1179.15 121.573C1178.61 121.573 1178.18 121.484 1177.86 121.307C1177.54 121.126 1177.29 120.922 1177.12 120.694C1176.95 120.463 1176.81 120.271 1176.72 120.119H1176.61V124.524H1175.33ZM1176.59 117.233C1176.59 117.862 1176.68 118.418 1176.86 118.899C1177.05 119.376 1177.32 119.75 1177.67 120.022C1178.03 120.289 1178.46 120.423 1178.97 120.423C1179.51 120.423 1179.96 120.282 1180.31 120C1180.68 119.714 1180.95 119.331 1181.13 118.85C1181.31 118.365 1181.4 117.826 1181.4 117.233C1181.4 116.647 1181.31 116.119 1181.13 115.649C1180.96 115.175 1180.69 114.801 1180.32 114.526C1179.97 114.248 1179.52 114.108 1178.97 114.108C1178.45 114.108 1178.02 114.24 1177.66 114.504C1177.31 114.765 1177.04 115.13 1176.86 115.6C1176.68 116.067 1176.59 116.611 1176.59 117.233ZM1185.57 121.486C1185.3 121.486 1185.07 121.39 1184.88 121.199C1184.69 121.007 1184.59 120.777 1184.59 120.51C1184.59 120.242 1184.69 120.012 1184.88 119.821C1185.07 119.629 1185.3 119.533 1185.57 119.533C1185.84 119.533 1186.07 119.629 1186.26 119.821C1186.45 120.012 1186.55 120.242 1186.55 120.51C1186.55 120.687 1186.5 120.85 1186.41 120.998C1186.32 121.146 1186.21 121.266 1186.06 121.356C1185.91 121.443 1185.75 121.486 1185.57 121.486ZM1193.12 121.399V120.423L1196.79 116.409C1197.22 115.938 1197.57 115.53 1197.85 115.183C1198.13 114.832 1198.33 114.503 1198.47 114.195C1198.61 113.884 1198.67 113.559 1198.67 113.219C1198.67 112.828 1198.58 112.49 1198.39 112.204C1198.21 111.919 1197.95 111.698 1197.63 111.543C1197.31 111.387 1196.95 111.309 1196.55 111.309C1196.12 111.309 1195.75 111.398 1195.43 111.575C1195.12 111.749 1194.87 111.993 1194.7 112.307C1194.53 112.622 1194.44 112.991 1194.44 113.414H1193.16C1193.16 112.763 1193.31 112.192 1193.61 111.7C1193.91 111.208 1194.32 110.825 1194.84 110.55C1195.36 110.275 1195.94 110.137 1196.59 110.137C1197.24 110.137 1197.82 110.275 1198.32 110.55C1198.82 110.825 1199.22 111.195 1199.5 111.662C1199.79 112.128 1199.93 112.647 1199.93 113.219C1199.93 113.627 1199.86 114.027 1199.71 114.418C1199.57 114.805 1199.31 115.237 1198.95 115.714C1198.59 116.188 1198.1 116.767 1197.46 117.45L1194.96 120.119V120.206H1200.13V121.399H1193.12ZM1206.86 110.289H1208.47L1212.24 119.512H1212.37L1216.15 110.289H1217.75V121.399H1216.49V112.958H1216.39L1212.91 121.399H1211.7L1208.23 112.958H1208.12V121.399H1206.86V110.289Z" fill="black" fill-opacity="0.4"/>
<path d="M1167.88 225.627V214.517H1171.63C1172.5 214.517 1173.21 214.665 1173.77 214.962C1174.33 215.255 1174.74 215.658 1175.01 216.171C1175.27 216.685 1175.41 217.269 1175.41 217.924C1175.41 218.578 1175.27 219.159 1175.01 219.665C1174.74 220.171 1174.33 220.569 1173.78 220.859C1173.22 221.144 1172.52 221.287 1171.65 221.287H1168.62V220.072H1171.61C1172.2 220.072 1172.68 219.985 1173.04 219.812C1173.41 219.638 1173.67 219.392 1173.84 219.074C1174 218.752 1174.08 218.369 1174.08 217.924C1174.08 217.479 1174 217.09 1173.84 216.757C1173.67 216.425 1173.4 216.168 1173.04 215.987C1172.67 215.803 1172.19 215.71 1171.59 215.71H1169.22V225.627H1167.88ZM1173.11 220.636L1175.84 225.627H1174.28L1171.59 220.636H1173.11ZM1177.48 228.752V217.294H1178.71V218.618H1178.87C1178.96 218.473 1179.09 218.289 1179.26 218.065C1179.43 217.837 1179.67 217.634 1179.98 217.457C1180.3 217.276 1180.73 217.186 1181.27 217.186C1181.98 217.186 1182.59 217.361 1183.13 217.712C1183.66 218.063 1184.08 218.56 1184.38 219.204C1184.68 219.848 1184.83 220.607 1184.83 221.482C1184.83 222.365 1184.68 223.13 1184.38 223.777C1184.08 224.421 1183.67 224.92 1183.13 225.274C1182.6 225.625 1181.99 225.801 1181.3 225.801C1180.76 225.801 1180.33 225.712 1180.01 225.535C1179.69 225.354 1179.44 225.15 1179.27 224.922C1179.09 224.69 1178.96 224.499 1178.87 224.347H1178.76V228.752H1177.48ZM1178.74 221.461C1178.74 222.09 1178.83 222.645 1179.01 223.126C1179.2 223.603 1179.47 223.978 1179.82 224.249C1180.17 224.517 1180.61 224.65 1181.12 224.65C1181.66 224.65 1182.1 224.509 1182.46 224.227C1182.82 223.942 1183.1 223.558 1183.28 223.077C1183.46 222.593 1183.55 222.054 1183.55 221.461C1183.55 220.875 1183.46 220.347 1183.28 219.877C1183.1 219.403 1182.83 219.029 1182.47 218.754C1182.11 218.475 1181.66 218.336 1181.12 218.336C1180.6 218.336 1180.16 218.468 1179.81 218.732C1179.45 218.992 1179.19 219.358 1179.01 219.828C1178.83 220.294 1178.74 220.839 1178.74 221.461ZM1187.72 225.714C1187.45 225.714 1187.22 225.618 1187.03 225.426C1186.84 225.235 1186.74 225.005 1186.74 224.737C1186.74 224.47 1186.84 224.24 1187.03 224.048C1187.22 223.857 1187.45 223.761 1187.72 223.761C1187.99 223.761 1188.22 223.857 1188.41 224.048C1188.6 224.24 1188.7 224.47 1188.7 224.737C1188.7 224.914 1188.65 225.077 1188.56 225.226C1188.47 225.374 1188.36 225.493 1188.21 225.584C1188.06 225.67 1187.9 225.714 1187.72 225.714ZM1199.17 214.517V225.627H1197.83V215.927H1197.76L1195.05 217.728V216.361L1197.83 214.517H1199.17ZM1206.86 214.517H1208.47L1212.24 223.739H1212.37L1216.15 214.517H1217.75V225.627H1216.49V217.186H1216.39L1212.91 225.627H1211.7L1208.23 217.186H1208.12V225.627H1206.86V214.517Z" fill="black" fill-opacity="0.4"/>
<path d="M1214.33 330.007C1213.51 330.007 1212.82 329.785 1212.24 329.34C1211.67 328.892 1211.23 328.242 1210.92 327.393C1210.62 326.539 1210.47 325.508 1210.47 324.3C1210.47 323.1 1210.62 322.074 1210.92 321.225C1211.23 320.371 1211.67 319.72 1212.25 319.272C1212.83 318.82 1213.52 318.594 1214.33 318.594C1215.14 318.594 1215.83 318.82 1216.41 319.272C1216.99 319.72 1217.43 320.371 1217.73 321.225C1218.04 322.074 1218.19 323.1 1218.19 324.3C1218.19 325.508 1218.04 326.539 1217.74 327.393C1217.43 328.242 1217 328.892 1216.42 329.34C1215.85 329.785 1215.15 330.007 1214.33 330.007ZM1214.33 328.814C1215.14 328.814 1215.77 328.423 1216.22 327.642C1216.67 326.861 1216.89 325.747 1216.89 324.3C1216.89 323.338 1216.79 322.519 1216.58 321.843C1216.38 321.167 1216.09 320.651 1215.7 320.297C1215.32 319.942 1214.87 319.765 1214.33 319.765C1213.53 319.765 1212.9 320.161 1212.45 320.953C1212 321.742 1211.77 322.857 1211.77 324.3C1211.77 325.262 1211.87 326.08 1212.07 326.752C1212.28 327.425 1212.57 327.937 1212.95 328.288C1213.33 328.638 1213.79 328.814 1214.33 328.814Z" fill="black" fill-opacity="0.4"/>
<mask id="mask0_1069_18880" style="mask-type:alpha" maskUnits="userSpaceOnUse" x="38" y="3" width="1087" height="366">
<path d="M107.085 173.25C76.5389 145.576 53.1246 157.434 38.4473 173.25V368.619H1125V3C1056.36 3 1055.32 70.5886 967.003 35.0963C768.689 -44.603 681.558 272.203 500.783 99.2889C407.175 9.75255 373.117 247.073 265.082 173.25C215.681 139.493 190.264 248.606 107.085 173.25Z" fill="url(#paint0_linear_1069_18880)"/>
</mask>
<g mask="url(#mask0_1069_18880)">
<path d="M107.085 173.25C76.5389 145.576 53.1246 157.434 38.4473 173.25V368.619H1125V3C1056.36 3 1055.32 70.5886 967.003 35.0963C768.689 -44.603 681.558 272.203 500.783 99.2889C407.175 9.75255 373.117 247.073 265.082 173.25C215.681 139.493 190.264 248.606 107.085 173.25Z" fill="url(#paint1_linear_1069_18880)"/>
</g>
<path d="M45.4368 173.25C60.1141 157.434 78.5097 145.576 109.056 173.25C192.234 248.606 217.652 139.493 267.053 173.25C375.088 247.073 409.146 9.75255 502.753 99.2889C683.529 272.203 770.66 -44.603 968.974 35.0963C1057.29 70.5886 1053.31 3 1121.95 3" stroke="#0E1D70" stroke-width="5.09211" stroke-linecap="round"/>
<rect x="357" y="139" width="29" height="29" rx="14.5" fill="#0E1D70"/>
<path d="M372.95 153.017H371.983V149.15H372.467C372.98 149.15 373.471 149.354 373.834 149.716C374.196 150.079 374.4 150.571 374.4 151.083C374.4 151.212 374.451 151.335 374.542 151.425C374.632 151.516 374.755 151.567 374.883 151.567C375.012 151.567 375.135 151.516 375.225 151.425C375.316 151.335 375.367 151.212 375.367 151.083C375.366 150.315 375.06 149.577 374.517 149.034C373.973 148.49 373.236 148.184 372.467 148.183H371.983V147.217C371.983 147.089 371.933 146.966 371.842 146.875C371.751 146.784 371.628 146.733 371.5 146.733C371.372 146.733 371.249 146.784 371.158 146.875C371.068 146.966 371.017 147.089 371.017 147.217V148.183H370.533C369.764 148.183 369.027 148.489 368.483 149.033C367.939 149.577 367.633 150.314 367.633 151.083C367.633 151.853 367.939 152.59 368.483 153.134C369.027 153.678 369.764 153.983 370.533 153.983H371.017V157.85H370.05C369.537 157.85 369.046 157.646 368.683 157.284C368.321 156.921 368.117 156.429 368.117 155.917C368.117 155.789 368.066 155.666 367.975 155.575C367.885 155.484 367.762 155.433 367.633 155.433C367.505 155.433 367.382 155.484 367.292 155.575C367.201 155.666 367.15 155.789 367.15 155.917C367.151 156.686 367.457 157.423 368 157.966C368.544 158.51 369.281 158.816 370.05 158.817H371.017V159.783C371.017 159.912 371.068 160.035 371.158 160.125C371.249 160.216 371.372 160.267 371.5 160.267C371.628 160.267 371.751 160.216 371.842 160.125C371.933 160.035 371.983 159.912 371.983 159.783V158.817H372.95C373.719 158.817 374.457 158.511 375.001 157.967C375.545 157.423 375.85 156.686 375.85 155.917C375.85 155.148 375.545 154.41 375.001 153.866C374.457 153.322 373.719 153.017 372.95 153.017ZM370.533 153.017C370.021 153.017 369.529 152.813 369.166 152.45C368.804 152.088 368.6 151.596 368.6 151.083C368.6 150.571 368.804 150.079 369.166 149.716C369.529 149.354 370.021 149.15 370.533 149.15H371.017V153.017H370.533ZM372.95 157.85H371.983V153.983H372.95C373.463 153.983 373.955 154.187 374.317 154.55C374.68 154.912 374.883 155.404 374.883 155.917C374.883 156.429 374.68 156.921 374.317 157.284C373.955 157.646 373.463 157.85 372.95 157.85Z" fill="white"/>
<defs>
<linearGradient id="paint0_linear_1069_18880" x1="38.4473" y1="262.561" x2="1128.87" y2="127.842" gradientUnits="userSpaceOnUse">
<stop offset="0.00860117" stop-color="#95A4FC" stop-opacity="0"/>
<stop offset="0.178635" stop-color="#95A4FC"/>
<stop offset="0.63031" stop-color="#95A4FC"/>
<stop offset="1" stop-color="#95A4FC" stop-opacity="0"/>
</linearGradient>
<linearGradient id="paint1_linear_1069_18880" x1="569.177" y1="3" x2="586.232" y2="231.618" gradientUnits="userSpaceOnUse">
<stop stop-color="#45508E"/>
<stop offset="1" stop-color="#95A4FC" stop-opacity="0"/>
</linearGradient>
</defs>
</svg>
