<svg width="14" height="14" viewBox="0 0 14 14" fill="none" xmlns="http://www.w3.org/2000/svg">
<path d="M6.9935 0.195801C3.3135 0.195801 0.333496 3.18247 0.333496 6.86247C0.333496 10.5425 3.3135 13.5291 6.9935 13.5291C10.6802 13.5291 13.6668 10.5425 13.6668 6.86247C13.6668 3.18247 10.6802 0.195801 6.9935 0.195801ZM11.6135 4.1958H9.64683C9.4335 3.36247 9.12683 2.56247 8.72683 1.82247C9.9535 2.24247 10.9735 3.0958 11.6135 4.1958ZM7.00016 1.5558C7.5535 2.3558 7.98683 3.24247 8.2735 4.1958H5.72683C6.0135 3.24247 6.44683 2.3558 7.00016 1.5558ZM1.84016 8.1958C1.7335 7.76913 1.66683 7.32247 1.66683 6.86247C1.66683 6.40247 1.7335 5.9558 1.84016 5.52913H4.0935C4.04016 5.96913 4.00016 6.40913 4.00016 6.86247C4.00016 7.3158 4.04016 7.7558 4.0935 8.1958H1.84016ZM2.38683 9.52913H4.3535C4.56683 10.3625 4.8735 11.1625 5.2735 11.9025C4.04683 11.4825 3.02683 10.6358 2.38683 9.52913ZM4.3535 4.1958H2.38683C3.02683 3.08913 4.04683 2.24247 5.2735 1.82247C4.8735 2.56247 4.56683 3.36247 4.3535 4.1958ZM7.00016 12.1691C6.44683 11.3691 6.0135 10.4825 5.72683 9.52913H8.2735C7.98683 10.4825 7.5535 11.3691 7.00016 12.1691ZM8.56016 8.1958H5.44016C5.38016 7.7558 5.3335 7.3158 5.3335 6.86247C5.3335 6.40913 5.38016 5.96247 5.44016 5.52913H8.56016C8.62016 5.96247 8.66683 6.40913 8.66683 6.86247C8.66683 7.3158 8.62016 7.7558 8.56016 8.1958ZM8.72683 11.9025C9.12683 11.1625 9.4335 10.3625 9.64683 9.52913H11.6135C10.9735 10.6291 9.9535 11.4825 8.72683 11.9025ZM9.90683 8.1958C9.96016 7.7558 10.0002 7.3158 10.0002 6.86247C10.0002 6.40913 9.96016 5.96913 9.90683 5.52913H12.1602C12.2668 5.9558 12.3335 6.40247 12.3335 6.86247C12.3335 7.32247 12.2668 7.76913 12.1602 8.1958H9.90683Z" fill="white"/>
</svg>
