<svg width="160" height="45" viewBox="0 0 160 45" fill="none" xmlns="http://www.w3.org/2000/svg">
<path d="M66.359 5.02992V9.95033H72.3681V11.9676H66.359V18.3823H63.8508V3.01265H73.4354V5.02992H66.359Z" fill="white"/>
<path d="M85.1853 16.365C85.7759 16.365 86.3024 16.2654 86.765 16.0662C87.2346 15.8669 87.6295 15.5894 87.9497 15.2336C88.277 14.8779 88.5261 14.4509 88.6968 13.9528C88.8676 13.4476 88.953 12.8891 88.953 12.2771V3.01265H91.4399V12.2771C91.4399 13.1808 91.294 14.0169 91.0023 14.7854C90.7177 15.5538 90.3049 16.2191 89.7642 16.7813C89.2234 17.3363 88.5652 17.7739 87.7896 18.0941C87.0211 18.4072 86.153 18.5637 85.1853 18.5637C84.2176 18.5637 83.3459 18.4072 82.5703 18.0941C81.8018 17.7739 81.1472 17.3363 80.6064 16.7813C80.0656 16.2191 79.6494 15.5538 79.3576 14.7854C79.073 14.0169 78.9307 13.1808 78.9307 12.2771V3.01265H81.4283V12.2665C81.4283 12.8784 81.5137 13.437 81.6844 13.9422C81.8552 14.4403 82.1007 14.8707 82.4209 15.2336C82.7411 15.5894 83.1325 15.8669 83.595 16.0662C84.0646 16.2654 84.5947 16.365 85.1853 16.365Z" fill="white"/>
<path d="M108.683 5.09396H103.891V18.3823H101.404V5.09396H96.6006V3.01265H108.683V5.09396Z" fill="white"/>
<path d="M120.086 16.365C120.677 16.365 121.203 16.2654 121.666 16.0662C122.136 15.8669 122.531 15.5894 122.851 15.2336C123.178 14.8779 123.427 14.4509 123.598 13.9528C123.769 13.4476 123.854 12.8891 123.854 12.2771V3.01265H126.341V12.2771C126.341 13.1808 126.195 14.0169 125.903 14.7854C125.619 15.5538 125.206 16.2191 124.665 16.7813C124.124 17.3363 123.466 17.7739 122.691 18.0941C121.922 18.4072 121.054 18.5637 120.086 18.5637C119.119 18.5637 118.247 18.4072 117.471 18.0941C116.703 17.7739 116.048 17.3363 115.507 16.7813C114.967 16.2191 114.55 15.5538 114.259 14.7854C113.974 14.0169 113.832 13.1808 113.832 12.2771V3.01265H116.329V12.2665C116.329 12.8784 116.415 13.437 116.585 13.9422C116.756 14.4403 117.002 14.8707 117.322 15.2336C117.642 15.5894 118.033 15.8669 118.496 16.0662C118.966 16.2654 119.496 16.365 120.086 16.365Z" fill="white"/>
<path d="M137.468 10.3773C138.037 10.3773 138.535 10.3097 138.962 10.1745C139.389 10.0322 139.745 9.83648 140.03 9.58744C140.314 9.33839 140.528 9.0431 140.67 8.70155C140.812 8.35289 140.884 7.96865 140.884 7.54883C140.884 6.70919 140.606 6.06879 140.051 5.62763C139.496 5.18646 138.656 4.96588 137.532 4.96588H135.504V10.3773H137.468ZM144.705 18.3823H142.474C142.033 18.3823 141.712 18.2115 141.513 17.87L137.927 12.6934C137.806 12.5155 137.674 12.3874 137.532 12.3091C137.39 12.2309 137.176 12.1917 136.892 12.1917H135.504V18.3823H133.007V3.01265H137.532C138.542 3.01265 139.411 3.11583 140.136 3.32218C140.869 3.52853 141.471 3.82383 141.94 4.20807C142.41 4.58519 142.755 5.04059 142.975 5.57426C143.203 6.10793 143.317 6.70208 143.317 7.35671C143.317 7.89038 143.235 8.38846 143.072 8.85098C142.915 9.31349 142.684 9.73331 142.378 10.1104C142.079 10.4876 141.709 10.8149 141.268 11.0924C140.827 11.3699 140.325 11.5869 139.763 11.7435C140.069 11.9285 140.332 12.1882 140.553 12.5226L144.705 18.3823Z" fill="white"/>
<path d="M159.354 16.365L159.343 18.3823H149.759V3.01265H159.343V5.02992H152.267V9.66215H157.924V11.6154H152.267V16.365H159.354Z" fill="white"/>
<path d="M72.5069 42.8029V43.7315H64.2564V28.6287H65.3557V42.8029H72.5069Z" fill="white"/>
<path d="M79.3561 43.7315H78.2568V28.6287H79.3561V43.7315Z" fill="white"/>
<path d="M98.5093 28.6287L92.2761 43.7315H91.3048L85.0716 28.6287H85.9361C86.0357 28.6287 86.1175 28.6572 86.1816 28.7141C86.2456 28.7639 86.2954 28.8315 86.331 28.9169L91.4756 41.4474C91.5325 41.6039 91.5894 41.7712 91.6463 41.949C91.7033 42.1269 91.7566 42.3084 91.8064 42.4934C91.8491 42.3084 91.8954 42.1269 91.9452 41.949C91.995 41.7712 92.0519 41.6039 92.116 41.4474L97.2499 28.9169C97.2783 28.8386 97.3281 28.771 97.3993 28.7141C97.4704 28.6572 97.5558 28.6287 97.6554 28.6287H98.5093Z" fill="white"/>
<path d="M105.314 43.7315H104.215V28.6287H105.314V43.7315Z" fill="white"/>
<path d="M124.638 28.6287V43.7315H124.126C124.033 43.7315 123.955 43.7173 123.891 43.6888C123.834 43.6532 123.777 43.5963 123.72 43.518L113.911 30.4111C113.933 30.6246 113.943 30.8274 113.943 31.0195V43.7315H112.983V28.6287H113.527C113.627 28.6287 113.701 28.6429 113.751 28.6714C113.808 28.6927 113.869 28.7461 113.933 28.8315L123.72 41.9063C123.699 41.6929 123.688 41.4901 123.688 41.298V28.6287H124.638Z" fill="white"/>
<path d="M144.36 36.8792V42.2479C143.606 42.7816 142.802 43.1907 141.948 43.4753C141.094 43.76 140.133 43.9023 139.066 43.9023C137.87 43.9023 136.796 43.7208 135.843 43.3579C134.889 42.9879 134.074 42.4685 133.398 41.7996C132.729 41.1236 132.214 40.3089 131.851 39.3554C131.495 38.4019 131.317 37.3417 131.317 36.1748C131.317 35.0078 131.491 33.9511 131.84 33.0048C132.196 32.0513 132.701 31.2401 133.356 30.5713C134.017 29.8953 134.814 29.3758 135.746 29.0129C136.679 28.6429 137.728 28.4579 138.895 28.4579C139.471 28.4579 140.002 28.4971 140.485 28.5753C140.976 28.6536 141.432 28.771 141.852 28.9276C142.271 29.077 142.663 29.2655 143.026 29.4932C143.389 29.7138 143.737 29.97 144.072 30.2617L143.773 30.7314C143.673 30.9021 143.524 30.9413 143.325 30.8488C143.218 30.8061 143.065 30.7064 142.866 30.5499C142.666 30.3934 142.392 30.2297 142.044 30.0589C141.695 29.8882 141.261 29.7352 140.742 29.6C140.229 29.4648 139.603 29.3972 138.863 29.3972C137.881 29.3972 136.992 29.5537 136.195 29.8668C135.405 30.1799 134.729 30.6282 134.167 31.2117C133.612 31.7951 133.181 32.5067 132.875 33.3463C132.576 34.186 132.427 35.1288 132.427 36.1748C132.427 37.235 132.576 38.1885 132.875 39.0352C133.181 39.882 133.619 40.6006 134.188 41.1912C134.765 41.7818 135.462 42.2337 136.28 42.5467C137.098 42.8598 138.02 43.0164 139.045 43.0164C139.493 43.0164 139.906 42.9879 140.283 42.931C140.667 42.8741 141.03 42.7958 141.371 42.6962C141.72 42.5894 142.054 42.4614 142.375 42.3119C142.702 42.1554 143.033 41.9811 143.367 41.7889V37.7224H140.475C140.396 37.7224 140.329 37.6975 140.272 37.6477C140.222 37.5979 140.197 37.541 140.197 37.4769V36.8792H144.36Z" fill="white"/>
<path d="M27.5405 0V44.8622H32.2163V3.49548L27.5405 0Z" fill="white"/>
<path d="M37.2416 7.25197V44.8621H40.8108V9.77777L37.2416 7.25197Z" fill="white"/>
<path d="M45.4505 13.3892V44.8622H48.8481V15.9297L45.4505 13.3892Z" fill="white"/>
<path d="M52.7924 18.8787V44.8622H55.1339V20.4527L52.7924 18.8787Z" fill="white"/>
<path d="M27.5934 0V44.8622H22.9177V3.49548L27.5934 0Z" fill="white"/>
<path d="M17.8933 7.25197V44.8621H14.3231V9.77777L17.8933 7.25197Z" fill="white"/>
<path d="M9.68436 13.3892V44.8622H6.28574V15.9297L9.68436 13.3892Z" fill="white"/>
<path d="M2.34155 18.8787V44.8622H0V20.4527L2.34155 18.8787Z" fill="white"/>
</svg>
