<svg width="107" height="29" viewBox="0 0 107 29" fill="none" xmlns="http://www.w3.org/2000/svg">
<path d="M44.5575 3.63934V6.71033H48.5923V7.96937H44.5575V11.973H42.8733V2.3803H49.309V3.63934H44.5575Z" fill="#0E1D70"/>
<path d="M57.1986 10.7139C57.5951 10.7139 57.9487 10.6518 58.2593 10.5274C58.5746 10.4031 58.8398 10.2299 59.0548 10.0078C59.2745 9.78576 59.4418 9.5193 59.5564 9.20843C59.6711 8.89311 59.7284 8.54449 59.7284 8.16256V2.3803H61.3983V8.16256C61.3983 8.72657 61.3003 9.24839 61.1044 9.72803C60.9133 10.2077 60.6362 10.6229 60.2731 10.9737C59.91 11.3201 59.468 11.5933 58.9473 11.7931C58.4313 11.9885 57.8484 12.0862 57.1986 12.0862C56.5488 12.0862 55.9635 11.9885 55.4427 11.7931C54.9267 11.5933 54.4872 11.3201 54.124 10.9737C53.7609 10.6229 53.4814 10.2077 53.2855 9.72803C53.0944 9.24839 52.9989 8.72657 52.9989 8.16256V2.3803H54.6759V8.1559C54.6759 8.53783 54.7332 8.88645 54.8479 9.20176C54.9625 9.51264 55.1274 9.78132 55.3424 10.0078C55.5574 10.2299 55.8202 10.4031 56.1307 10.5274C56.4461 10.6518 56.802 10.7139 57.1986 10.7139Z" fill="#0E1D70"/>
<path d="M72.9762 3.67931H69.7584V11.973H68.0885V3.67931H64.8635V2.3803H72.9762V3.67931Z" fill="#0E1D70"/>
<path d="M80.6332 10.7139C81.0298 10.7139 81.3834 10.6518 81.6939 10.5274C82.0093 10.4031 82.2744 10.2299 82.4894 10.0078C82.7092 9.78576 82.8764 9.5193 82.9911 9.20843C83.1058 8.89311 83.1631 8.54449 83.1631 8.16256V2.3803H84.8329V8.16256C84.8329 8.72657 84.735 9.24839 84.5391 9.72803C84.348 10.2077 84.0709 10.6229 83.7078 10.9737C83.3447 11.3201 82.9027 11.5933 82.3819 11.7931C81.8659 11.9885 81.283 12.0862 80.6332 12.0862C79.9835 12.0862 79.3982 11.9885 78.8774 11.7931C78.3614 11.5933 77.9218 11.3201 77.5587 10.9737C77.1956 10.6229 76.9161 10.2077 76.7202 9.72803C76.5291 9.24839 76.4335 8.72657 76.4335 8.16256V2.3803H78.1105V8.1559C78.1105 8.53783 78.1679 8.88645 78.2825 9.20176C78.3972 9.51264 78.5621 9.78132 78.7771 10.0078C78.9921 10.2299 79.2548 10.4031 79.5654 10.5274C79.8807 10.6518 80.2367 10.7139 80.6332 10.7139Z" fill="#0E1D70"/>
<path d="M92.3044 6.97679C92.6866 6.97679 93.021 6.9346 93.3077 6.85022C93.5944 6.7614 93.8333 6.63927 94.0244 6.48384C94.2155 6.3284 94.3588 6.14409 94.4544 5.93092C94.5499 5.71331 94.5977 5.47349 94.5977 5.21147C94.5977 4.68743 94.4114 4.28773 94.0387 4.01239C93.6661 3.73704 93.1023 3.59937 92.3474 3.59937H90.9857V6.97679H92.3044ZM97.1634 11.973H95.6656C95.3694 11.973 95.1544 11.8664 95.0206 11.6532L92.6125 8.42236C92.5313 8.31133 92.4429 8.23139 92.3474 8.18254C92.2518 8.13369 92.1085 8.10926 91.9174 8.10926H90.9857V11.973H89.3087V2.3803H92.3474C93.0258 2.3803 93.6087 2.44469 94.0961 2.57348C94.5882 2.70227 94.9919 2.88658 95.3072 3.12639C95.6226 3.36177 95.8543 3.646 96.0024 3.97908C96.1553 4.31216 96.2318 4.68299 96.2318 5.09156C96.2318 5.42464 96.1768 5.73552 96.0669 6.02419C95.9618 6.31285 95.8065 6.57488 95.6011 6.81025C95.4004 7.04563 95.152 7.24992 94.8557 7.42312C94.5595 7.59632 94.2227 7.73177 93.8452 7.82948C94.0507 7.94494 94.2275 8.10704 94.3756 8.31577L97.1634 11.973Z" fill="#0E1D70"/>
<path d="M107 10.7139L106.993 11.973H100.557V2.3803H106.993V3.63934H102.241V6.53047H106.04V7.74954H102.241V10.7139H107Z" fill="#0E1D70"/>
<path d="M48.6855 27.2147V27.7943H43.1456V18.3681H43.8838V27.2147H48.6855Z" fill="#0E1D70"/>
<path d="M53.2845 27.7943H52.5464V18.3681H53.2845V27.7943Z" fill="#0E1D70"/>
<path d="M66.1451 18.3681L61.9597 27.7943H61.3076L57.1222 18.3681H57.7027C57.7696 18.3681 57.8245 18.3859 57.8675 18.4214C57.9105 18.4525 57.944 18.4947 57.9679 18.548L61.4222 26.3687C61.4605 26.4664 61.4987 26.5708 61.5369 26.6818C61.5751 26.7928 61.611 26.906 61.6444 27.0215C61.6731 26.906 61.7041 26.7928 61.7376 26.6818C61.771 26.5708 61.8092 26.4664 61.8522 26.3687L65.2994 18.548C65.3186 18.4991 65.352 18.4569 65.3998 18.4214C65.4476 18.3859 65.5049 18.3681 65.5718 18.3681H66.1451Z" fill="#0E1D70"/>
<path d="M70.7143 27.7943H69.9761V18.3681H70.7143V27.7943Z" fill="#0E1D70"/>
<path d="M83.6895 18.3681V27.7943H83.3455C83.2834 27.7943 83.2308 27.7854 83.1878 27.7676C83.1496 27.7454 83.1114 27.7099 83.0732 27.661L76.4869 19.4806C76.5013 19.6138 76.5084 19.7404 76.5084 19.8603V27.7943H75.8634V18.3681H76.2289C76.2958 18.3681 76.346 18.377 76.3794 18.3948C76.4177 18.4081 76.4583 18.4414 76.5013 18.4947L83.0732 26.6551C83.0588 26.5219 83.0517 26.3953 83.0517 26.2754V18.3681H83.6895Z" fill="#0E1D70"/>
<path d="M96.932 23.5175V26.8683C96.4255 27.2014 95.8856 27.4567 95.3123 27.6344C94.7389 27.812 94.0939 27.9008 93.3773 27.9008C92.5746 27.9008 91.8531 27.7876 91.2129 27.5611C90.5727 27.3302 90.0256 27.006 89.5717 26.5885C89.1226 26.1666 88.7762 25.6581 88.5325 25.063C88.2937 24.4679 88.1742 23.8062 88.1742 23.0779C88.1742 22.3495 88.2913 21.69 88.5254 21.0994C88.7643 20.5043 89.1035 19.998 89.5431 19.5805C89.9874 19.1586 90.5225 18.8344 91.1484 18.6079C91.7743 18.377 92.479 18.2615 93.2626 18.2615C93.6496 18.2615 94.0055 18.286 94.3304 18.3348C94.6601 18.3837 94.9659 18.4569 95.2478 18.5546C95.5297 18.6479 95.7925 18.7656 96.0361 18.9077C96.2798 19.0454 96.5139 19.2052 96.7385 19.3873L96.5378 19.6804C96.4709 19.787 96.3706 19.8115 96.2368 19.7537C96.1651 19.7271 96.0624 19.6649 95.9286 19.5672C95.7948 19.4695 95.6109 19.3673 95.3768 19.2608C95.1427 19.1542 94.8512 19.0587 94.5024 18.9743C94.1584 18.8899 93.738 18.8477 93.2411 18.8477C92.5818 18.8477 91.9845 18.9454 91.4494 19.1409C90.9191 19.3363 90.4652 19.616 90.0877 19.9802C89.7151 20.3444 89.426 20.7885 89.2206 21.3125C89.0199 21.8366 88.9196 22.425 88.9196 23.0779C88.9196 23.7396 89.0199 24.3347 89.2206 24.8632C89.426 25.3916 89.7198 25.8402 90.1021 26.2088C90.4891 26.5774 90.9573 26.8594 91.5067 27.0548C92.0562 27.2502 92.6749 27.3479 93.3629 27.3479C93.6639 27.3479 93.941 27.3302 94.1943 27.2946C94.4523 27.2591 94.6959 27.2103 94.9253 27.1481C95.1594 27.0815 95.3839 27.0015 95.599 26.9083C95.8187 26.8106 96.0409 26.7018 96.2655 26.5818V24.0438H94.3233C94.2707 24.0438 94.2253 24.0282 94.1871 23.9972C94.1537 23.9661 94.1369 23.9305 94.1369 23.8906V23.5175H96.932Z" fill="#0E1D70"/>
<path d="M18.4924 0.5V28.5H21.632V2.68165L18.4924 0.5Z" fill="#0E1D70"/>
<path d="M25.0063 5.02619V28.4999H27.4029V6.60263L25.0063 5.02619Z" fill="#0E1D70"/>
<path d="M30.5182 8.85664V28.5H32.7996V10.4423L30.5182 8.85664Z" fill="#0E1D70"/>
<path d="M35.448 12.2828V28.4999H37.0203V13.2652L35.448 12.2828Z" fill="#0E1D70"/>
<path d="M18.5279 0.5V28.5H15.3883V2.68165L18.5279 0.5Z" fill="#0E1D70"/>
<path d="M12.0146 5.02619V28.4999H9.61737V6.60263L12.0146 5.02619Z" fill="#0E1D70"/>
<path d="M6.50267 8.85664V28.5H4.22063V10.4423L6.50267 8.85664Z" fill="#0E1D70"/>
<path d="M1.57226 12.2828V28.4999H0V13.2652L1.57226 12.2828Z" fill="#0E1D70"/>
</svg>
