<svg width="62" height="69" viewBox="0 0 62 69" fill="none" xmlns="http://www.w3.org/2000/svg">
<path d="M13.6431 44.6051L17.844 41.1964L28.4985 55.2857H0C0 55.2857 4.47659 30.4839 30.4937 30.4839C56.5108 30.4839 61.5 55.2857 61.5 55.2857H40.2407L17.3701 17.1237L28.3448 0L47.9927 30.0237L43.1531 32.8293L27.8086 9.82953L23.5869 16.4334L43.8486 49.8601H53.8769C53.8769 49.8601 45.895 35.6294 31.7739 35.6294C17.6528 35.6294 8.03318 49.8601 8.03318 49.8601H17.959L13.6431 44.6051Z" fill="#333333"/>
<path d="M7.03899 66.1325L6.25368 63.8871C6.207 63.769 6.15698 63.6308 6.10363 63.4724C6.05361 63.3139 6.00525 63.1419 5.95857 62.9565C5.91189 63.1453 5.86187 63.3206 5.80851 63.4825C5.75849 63.6409 5.71014 63.7792 5.66346 63.8972L4.88315 66.1325H7.03899ZM9.55996 68.9191H8.39451C8.26446 68.9191 8.15775 68.8887 8.07439 68.8281C7.99436 68.764 7.93433 68.6831 7.89432 68.5853L7.40413 67.1844H4.51301L4.02282 68.5853C3.98948 68.6696 3.93112 68.7471 3.84775 68.8179C3.76439 68.8854 3.65935 68.9191 3.53263 68.9191H2.35718L5.19327 61.5809H6.72887L9.55996 68.9191Z" fill="#333333"/>
<path d="M14.5346 65.0553C14.778 65.0553 14.9881 65.0249 15.1649 64.9643C15.3416 64.9002 15.4867 64.8142 15.6 64.7063C15.7134 64.5951 15.7968 64.4653 15.8501 64.3169C15.9035 64.1686 15.9302 64.0067 15.9302 63.8314C15.9302 63.4842 15.8151 63.2144 15.585 63.0223C15.3583 62.8301 15.0115 62.734 14.5446 62.734H13.7643V65.0553H14.5346ZM18.051 68.9191H16.6955C16.442 68.9191 16.2586 68.8213 16.1452 68.6258L14.7647 66.3753C14.708 66.2876 14.6447 66.2235 14.5746 66.1831C14.5079 66.1426 14.4079 66.1224 14.2745 66.1224H13.7643V68.9191H12.2637V61.5809H14.5446C15.0515 61.5809 15.485 61.6349 15.8451 61.7428C16.2053 61.8473 16.5004 61.9939 16.7305 62.1827C16.9606 62.3715 17.129 62.5974 17.2357 62.8604C17.3424 63.12 17.3957 63.4066 17.3957 63.7202C17.3957 63.9629 17.3607 64.1939 17.2907 64.413C17.224 64.6288 17.1256 64.826 16.9956 65.0047C16.8655 65.1834 16.7055 65.3419 16.5154 65.4801C16.3253 65.6183 16.1086 65.7296 15.8651 65.8139C15.9618 65.8678 16.0519 65.9336 16.1352 66.0111C16.2186 66.0853 16.2936 66.1746 16.3603 66.2792L18.051 68.9191Z" fill="#333333"/>
<path d="M26.0763 67.1136C26.1596 67.1136 26.2297 67.144 26.2864 67.2047L26.8816 67.8469C26.5881 68.2245 26.223 68.5111 25.7862 68.7067C25.3527 68.9022 24.8358 69 24.2356 69C23.692 69 23.2035 68.9073 22.77 68.7218C22.3365 68.533 21.968 68.2717 21.6646 67.938C21.3611 67.6042 21.1277 67.208 20.9643 66.7495C20.8009 66.291 20.7192 65.7903 20.7192 65.2475C20.7192 64.8833 20.7575 64.5378 20.8342 64.2107C20.9143 63.8803 21.0293 63.5769 21.1794 63.3004C21.3294 63.0239 21.5095 62.7744 21.7196 62.5519C21.933 62.3294 22.1731 62.1406 22.4399 61.9855C22.7066 61.827 22.9967 61.7074 23.3102 61.6264C23.627 61.5421 23.9638 61.5 24.3206 61.5C24.5874 61.5 24.8391 61.5236 25.0759 61.5708C25.316 61.618 25.5394 61.6837 25.7461 61.768C25.9529 61.8523 26.143 61.9552 26.3164 62.0765C26.4931 62.1945 26.6515 62.3243 26.7915 62.4659L26.2864 63.1639C26.2563 63.2077 26.218 63.2465 26.1713 63.2802C26.1246 63.3139 26.0613 63.3307 25.9812 63.3307C25.9012 63.3307 25.8195 63.3021 25.7361 63.2448C25.6561 63.1875 25.5561 63.1234 25.436 63.0526C25.3193 62.9818 25.1709 62.9177 24.9909 62.8604C24.8141 62.8031 24.589 62.7744 24.3156 62.7744C24.0121 62.7744 23.7337 62.8301 23.4803 62.9413C23.2268 63.0526 23.0084 63.2144 22.825 63.4268C22.6449 63.6359 22.5049 63.8938 22.4049 64.2006C22.3048 64.5074 22.2548 64.8564 22.2548 65.2475C22.2548 65.6419 22.3081 65.9943 22.4149 66.3045C22.5249 66.6113 22.6733 66.8709 22.86 67.0833C23.0501 67.2957 23.2702 67.4575 23.5203 67.5688C23.7737 67.6767 24.0438 67.7306 24.3306 67.7306C24.5007 67.7306 24.6541 67.7222 24.7908 67.7053C24.9308 67.6885 25.0592 67.6598 25.1759 67.6194C25.296 67.5789 25.4077 67.5266 25.5111 67.4626C25.6178 67.3985 25.7245 67.3176 25.8312 67.2198C25.8679 67.1895 25.9062 67.1642 25.9462 67.144C25.9862 67.1237 26.0296 67.1136 26.0763 67.1136Z" fill="#333333"/>
<path d="M33.5922 66.1325L32.8069 63.8871C32.7602 63.769 32.7102 63.6308 32.6569 63.4724C32.6068 63.3139 32.5585 63.1419 32.5118 62.9565C32.4651 63.1453 32.4151 63.3206 32.3617 63.4825C32.3117 63.6409 32.2634 63.7792 32.2167 63.8972L31.4364 66.1325H33.5922ZM36.1132 68.9191H34.9478C34.8177 68.9191 34.711 68.8887 34.6276 68.8281C34.5476 68.764 34.4876 68.6831 34.4476 68.5853L33.9574 67.1844H31.0662L30.5761 68.5853C30.5427 68.6696 30.4844 68.7471 30.401 68.8179C30.3176 68.8854 30.2126 68.9191 30.0859 68.9191H28.9104L31.7465 61.5809H33.2821L36.1132 68.9191Z" fill="#333333"/>
<path d="M45.3245 65.2475C45.3245 65.7835 45.2345 66.2775 45.0544 66.7293C44.8777 67.1777 44.6259 67.5637 44.2991 67.8874C43.9756 68.2111 43.5855 68.4639 43.1286 68.646C42.6718 68.8281 42.1649 68.9191 41.6081 68.9191H38.817V61.5809H41.6081C42.1649 61.5809 42.6718 61.6719 43.1286 61.854C43.5855 62.0361 43.9756 62.2906 44.2991 62.6177C44.6259 62.9413 44.8777 63.3274 45.0544 63.7758C45.2345 64.2242 45.3245 64.7148 45.3245 65.2475ZM43.7839 65.2475C43.7839 64.8631 43.7339 64.5175 43.6338 64.2107C43.5338 63.9039 43.3904 63.6443 43.2037 63.4319C43.0169 63.2195 42.7885 63.056 42.5184 62.9413C42.2516 62.8267 41.9482 62.7694 41.6081 62.7694H40.3276V67.7306H41.6081C41.9482 67.7306 42.2516 67.675 42.5184 67.5637C42.7885 67.4491 43.0169 67.2856 43.2037 67.0732C43.3904 66.8574 43.5338 66.5961 43.6338 66.2893C43.7339 65.9825 43.7839 65.6352 43.7839 65.2475Z" fill="#333333"/>
<path d="M50.3119 68.9191H48.8013V61.5809H50.3119V68.9191Z" fill="#333333"/>
<path d="M57.6933 66.1325L56.908 63.8871C56.8614 63.769 56.8113 63.6308 56.758 63.4724C56.708 63.3139 56.6596 63.1419 56.6129 62.9565C56.5662 63.1453 56.5162 63.3206 56.4629 63.4825C56.4128 63.6409 56.3645 63.7792 56.3178 63.8972L55.5375 66.1325H57.6933ZM60.2143 68.9191H59.0489C58.9188 68.9191 58.8121 68.8887 58.7287 68.8281C58.6487 68.764 58.5887 68.6831 58.5487 68.5853L58.0585 67.1844H55.1674L54.6772 68.5853C54.6438 68.6696 54.5855 68.7471 54.5021 68.8179C54.4187 68.8854 54.3137 68.9191 54.187 68.9191H53.0115L55.8476 61.5809H57.3832L60.2143 68.9191Z" fill="#333333"/>
</svg>
