<svg width="66" height="72" viewBox="0 0 66 72" fill="none" xmlns="http://www.w3.org/2000/svg">
<path d="M13.3972 17.2513H18.5913V58.4481H0.306396V0.0859375C0.306396 0.0859375 18.7803 2.53859 31.764 20.3575C44.7477 38.1765 43.368 52.564 43.368 52.564V58.4497H22.5948C22.5948 58.4497 22.4325 28.6959 38.9866 15.127C55.5406 1.55815 65.4406 0.0859375 65.4406 0.0859375V58.4497H47.7495V16.4343H52.2932V51.7469H59.9205V6.78867C59.9205 6.78867 43.2043 15.2904 37.1991 26.8969C31.1939 38.5033 28.5968 51.582 28.5968 51.582H37.3613C37.3613 51.582 35.5044 28.2913 20.2828 16.025C6.86755 5.21491 5.76667 6.13347 5.76667 6.13347L5.90526 51.582H13.5846L13.3972 17.2513Z" fill="#333333"/>
<path d="M9.01891 64.5636V71.8331H7.70089V67.3692C7.70089 67.2757 7.70255 67.1755 7.70586 67.0686C7.71249 66.9617 7.72244 66.8532 7.7357 66.7429L5.67163 70.6858C5.55889 70.9029 5.38482 71.0115 5.14939 71.0115H4.9405C4.82445 71.0115 4.72166 70.9848 4.63213 70.9313C4.54261 70.8746 4.47132 70.7927 4.41826 70.6858L2.34424 66.7279C2.35419 66.8448 2.36248 66.9584 2.36911 67.0686C2.37574 67.1755 2.37906 67.2757 2.37906 67.3692V71.8331H1.06104V64.5636H2.19503C2.25803 64.5636 2.3144 64.5652 2.36414 64.5686C2.41387 64.5719 2.45698 64.5819 2.49345 64.5986C2.53324 64.612 2.56806 64.6354 2.5979 64.6688C2.63106 64.6988 2.66256 64.7423 2.6924 64.799L4.71171 68.6768C4.77471 68.7937 4.83274 68.914 4.88579 69.0375C4.94216 69.1611 4.99521 69.288 5.04495 69.4183C5.09468 69.2847 5.14608 69.1544 5.19913 69.0275C5.2555 68.9006 5.31518 68.7787 5.37818 68.6618L7.38257 64.799C7.41242 64.7423 7.44392 64.6988 7.47707 64.6688C7.51023 64.6354 7.54505 64.612 7.58152 64.5986C7.62131 64.5819 7.66442 64.5719 7.71084 64.5686C7.76057 64.5652 7.8186 64.5636 7.88492 64.5636H9.01891Z" fill="#333333"/>
<path d="M16.3531 69.0726L15.5722 66.8481C15.5258 66.7312 15.476 66.5943 15.423 66.4373C15.3732 66.2803 15.3252 66.11 15.2787 65.9263C15.2323 66.1133 15.1826 66.287 15.1295 66.4473C15.0798 66.6043 15.0317 66.7413 14.9853 66.8582L14.2094 69.0726H16.3531ZM18.8598 71.8331H17.7009C17.5716 71.8331 17.4655 71.8031 17.3826 71.743C17.303 71.6795 17.2433 71.5993 17.2036 71.5025L16.7161 70.1147H13.8414L13.3539 71.5025C13.3208 71.586 13.2628 71.6628 13.1799 71.7329C13.097 71.7997 12.9925 71.8331 12.8665 71.8331H11.6977L14.5178 64.5636H16.0447L18.8598 71.8331Z" fill="#333333"/>
<path d="M27.7306 64.5636V71.8331H26.2285V68.7019H23.0503V71.8331H21.5483V64.5636H23.0503V67.6498H26.2285V64.5636H27.7306Z" fill="#333333"/>
<path d="M35.0723 69.0726L34.2915 66.8481C34.245 66.7312 34.1953 66.5943 34.1423 66.4373C34.0925 66.2803 34.0444 66.11 33.998 65.9263C33.9516 66.1133 33.9019 66.287 33.8488 66.4473C33.7991 66.6043 33.751 66.7413 33.7046 66.8582L32.9287 69.0726H35.0723ZM37.5791 71.8331H36.4202C36.2909 71.8331 36.1848 71.8031 36.1019 71.743C36.0223 71.6795 35.9626 71.5993 35.9228 71.5025L35.4354 70.1147H32.5606L32.0732 71.5025C32.0401 71.586 31.982 71.6628 31.8991 71.7329C31.8162 71.7997 31.7118 71.8331 31.5858 71.8331H30.417L33.237 64.5636H34.764L37.5791 71.8331Z" fill="#333333"/>
<path d="M42.5256 68.0055C42.7677 68.0055 42.9766 67.9754 43.1523 67.9153C43.328 67.8518 43.4723 67.7667 43.585 67.6598C43.6978 67.5495 43.7806 67.421 43.8337 67.274C43.8867 67.127 43.9133 66.9667 43.9133 66.793C43.9133 66.449 43.7989 66.1818 43.5701 65.9914C43.3446 65.801 42.9998 65.7059 42.5356 65.7059H41.7597V68.0055H42.5256ZM46.0221 71.8331H44.6742C44.4222 71.8331 44.2399 71.7363 44.1271 71.5426L42.7544 69.3131C42.698 69.2262 42.635 69.1628 42.5654 69.1227C42.4991 69.0826 42.3996 69.0626 42.267 69.0626H41.7597V71.8331H40.2676V64.5636H42.5356C43.0396 64.5636 43.4706 64.617 43.8287 64.7239C44.1868 64.8274 44.4803 64.9727 44.7091 65.1598C44.9379 65.3468 45.1053 65.5706 45.2114 65.8311C45.3175 66.0883 45.3706 66.3722 45.3706 66.6828C45.3706 66.9233 45.3357 67.1521 45.2661 67.3692C45.1998 67.583 45.102 67.7783 44.9727 67.9554C44.8433 68.1324 44.6842 68.2894 44.4952 68.4263C44.3062 68.5632 44.0907 68.6735 43.8486 68.757C43.9448 68.8104 44.0343 68.8755 44.1172 68.9524C44.2001 69.0258 44.2747 69.1144 44.341 69.2179L46.0221 71.8331Z" fill="#333333"/>
<path d="M56.0612 68.1958C56.0612 68.7269 55.9716 69.2196 55.7926 69.6738C55.6168 70.1281 55.3665 70.5205 55.0416 70.8512C54.7199 71.1818 54.332 71.4424 53.8777 71.6327C53.4235 71.8198 52.9195 71.9133 52.3657 71.9133C51.812 71.9133 51.308 71.8198 50.8537 71.6327C50.3995 71.4424 50.0099 71.1818 49.6849 70.8512C49.36 70.5205 49.108 70.1281 48.9289 69.6738C48.7532 69.2196 48.6653 68.7269 48.6653 68.1958C48.6653 67.6648 48.7532 67.1738 48.9289 66.7229C49.108 66.2686 49.36 65.8762 49.6849 65.5455C50.0099 65.2149 50.3995 64.956 50.8537 64.769C51.308 64.5786 51.812 64.4834 52.3657 64.4834C52.9195 64.4834 53.4235 64.5786 53.8777 64.769C54.332 64.956 54.7199 65.2165 55.0416 65.5505C55.3665 65.8812 55.6168 66.2737 55.7926 66.7279C55.9716 67.1788 56.0612 67.6681 56.0612 68.1958ZM54.5342 68.1958C54.5342 67.8151 54.4845 67.4744 54.385 67.1738C54.2856 66.8699 54.1413 66.6127 53.9523 66.4022C53.7666 66.1885 53.5395 66.0265 53.2709 65.9163C53.0057 65.8027 52.7039 65.7459 52.3657 65.7459C52.0275 65.7459 51.7241 65.8027 51.4555 65.9163C51.187 66.0265 50.9582 66.1885 50.7692 66.4022C50.5835 66.6127 50.4409 66.8699 50.3414 67.1738C50.242 67.4744 50.1922 67.8151 50.1922 68.1958C50.1922 68.58 50.242 68.924 50.3414 69.2279C50.4409 69.5285 50.5835 69.784 50.7692 69.9945C50.9582 70.2049 51.187 70.3669 51.4555 70.4804C51.7241 70.5907 52.0275 70.6458 52.3657 70.6458C52.7039 70.6458 53.0057 70.5907 53.2709 70.4804C53.5395 70.3669 53.7666 70.2049 53.9523 69.9945C54.1413 69.784 54.2856 69.5285 54.385 69.2279C54.4845 68.924 54.5342 68.58 54.5342 68.1958Z" fill="#333333"/>
<path d="M65.6937 64.5636V71.8331H64.9228C64.8067 71.8331 64.7089 71.8148 64.6293 71.778C64.5497 71.738 64.4718 71.6712 64.3956 71.5776L60.7996 66.9684C60.8095 67.0853 60.8162 67.2005 60.8195 67.3141C60.8261 67.4276 60.8294 67.5328 60.8294 67.6297V71.8331H59.5114V64.5636H60.2973C60.3603 64.5636 60.4133 64.5669 60.4564 64.5736C60.5028 64.5769 60.5443 64.5886 60.5808 64.6087C60.6172 64.6254 60.652 64.6487 60.6852 64.6788C60.7184 64.7089 60.7548 64.7489 60.7946 64.799L64.4155 69.4283C64.4022 69.3014 64.3922 69.1795 64.3856 69.0626C64.379 68.9423 64.3757 68.8288 64.3757 68.7219V64.5636H65.6937Z" fill="#333333"/>
</svg>
