<svg width="56" height="72" viewBox="0 0 56 72" fill="none" xmlns="http://www.w3.org/2000/svg">
<path d="M14.0734 16.2062H19.706V56.9521H0.982422V0.360352C0.982422 0.360352 18.0144 3.63381 32.4017 19.1243C46.7889 34.6148 54.8291 56.9521 54.8291 56.9521H32.1899V0.360352H50.5972V32.6519H45.0959V4.72445H37.0557V52.0696H47.6347C47.6347 52.0696 41.4995 35.487 29.651 22.1793C17.8026 8.87011 6.16601 6.68884 6.16601 6.68884V51.4159H14.2062L14.0734 16.2062Z" fill="#333333"/>
<path d="M7.55569 64.5133V71.5621H6.82552C6.7156 71.5621 6.62296 71.5443 6.54759 71.5087C6.47221 71.4698 6.39841 71.4051 6.32618 71.3144L2.92029 66.8451C2.92971 66.9584 2.93599 67.0702 2.93913 67.1803C2.94541 67.2904 2.94855 67.3924 2.94855 67.4863V71.5621H1.7002V64.5133H2.4445C2.50417 64.5133 2.55442 64.5165 2.59524 64.523C2.63921 64.5262 2.67847 64.5376 2.71301 64.557C2.74756 64.5732 2.78053 64.5959 2.81194 64.625C2.84334 64.6542 2.87789 64.693 2.91558 64.7416L6.34502 69.2303C6.33246 69.1073 6.32304 68.9891 6.31676 68.8757C6.31048 68.7591 6.30734 68.649 6.30734 68.5454V64.5133H7.55569Z" fill="#333333"/>
<path d="M24.5348 68.0353C24.5348 68.5502 24.45 69.0279 24.2804 69.4684C24.114 69.9088 23.8769 70.2894 23.5691 70.61C23.2645 70.9306 22.897 71.1832 22.4668 71.3678C22.0365 71.5492 21.5592 71.6399 21.0347 71.6399C20.5102 71.6399 20.0329 71.5492 19.6026 71.3678C19.1724 71.1832 18.8034 70.9306 18.4956 70.61C18.1878 70.2894 17.9491 69.9088 17.7796 69.4684C17.6131 69.0279 17.5299 68.5502 17.5299 68.0353C17.5299 67.5203 17.6131 67.0443 17.7796 66.607C17.9491 66.1666 18.1878 65.7861 18.4956 65.4654C18.8034 65.1448 19.1724 64.8938 19.6026 64.7124C20.0329 64.5278 20.5102 64.4355 21.0347 64.4355C21.5592 64.4355 22.0365 64.5278 22.4668 64.7124C22.897 64.8938 23.2645 65.1464 23.5691 65.4703C23.8769 65.7909 24.114 66.1715 24.2804 66.6119C24.45 67.0491 24.5348 67.5236 24.5348 68.0353ZM23.0886 68.0353C23.0886 67.6661 23.0415 67.3357 22.9473 67.0443C22.8531 66.7495 22.7165 66.5002 22.5374 66.2961C22.3616 66.0889 22.1464 65.9318 21.8921 65.8249C21.6408 65.7148 21.355 65.6597 21.0347 65.6597C20.7144 65.6597 20.427 65.7148 20.1726 65.8249C19.9182 65.9318 19.7016 66.0889 19.5225 66.2961C19.3467 66.5002 19.2116 66.7495 19.1174 67.0443C19.0232 67.3357 18.9761 67.6661 18.9761 68.0353C18.9761 68.4077 19.0232 68.7413 19.1174 69.036C19.2116 69.3275 19.3467 69.5752 19.5225 69.7793C19.7016 69.9833 19.9182 70.1404 20.1726 70.2505C20.427 70.3574 20.7144 70.4108 21.0347 70.4108C21.355 70.4108 21.6408 70.3574 21.8921 70.2505C22.1464 70.1404 22.3616 69.9833 22.5374 69.7793C22.7165 69.5752 22.8531 69.3275 22.9473 69.036C23.0415 68.7413 23.0886 68.4077 23.0886 68.0353Z" fill="#333333"/>
<path d="M40.2054 71.5621H38.7921C38.6979 71.5621 38.621 71.5379 38.5613 71.4893C38.5048 71.4407 38.4592 71.384 38.4247 71.3192L36.9455 68.7251C36.9298 68.7607 36.9141 68.7964 36.8984 68.832C36.8858 68.8644 36.8701 68.8951 36.8513 68.9243L35.4475 71.3192C35.4067 71.3808 35.358 71.4375 35.3014 71.4893C35.2481 71.5379 35.179 71.5621 35.0942 71.5621H33.7752L36.0128 67.9333L33.8599 64.5133H35.2732C35.3674 64.5133 35.4365 64.5262 35.4805 64.5521C35.5244 64.578 35.5637 64.6201 35.5982 64.6784L37.068 67.1706C37.0837 67.1317 37.101 67.0928 37.1198 67.054C37.1386 67.0119 37.1606 66.9698 37.1858 66.9277L38.5048 64.7027C38.5425 64.638 38.5833 64.591 38.6273 64.5619C38.6744 64.5295 38.7309 64.5133 38.7968 64.5133H40.1488L37.9772 67.8701L40.2054 71.5621Z" fill="#333333"/>
<path d="M53.1433 68.8854L52.4037 66.7285C52.3597 66.6151 52.3126 66.4824 52.2624 66.3301C52.2153 66.1779 52.1697 66.0128 52.1258 65.8346C52.0818 66.016 52.0347 66.1844 51.9844 66.3399C51.9373 66.4921 51.8918 66.6249 51.8478 66.7382L51.113 68.8854H53.1433ZM55.5175 71.5621H54.4199C54.2974 71.5621 54.1969 71.533 54.1184 71.4747C54.0431 71.4132 53.9865 71.3354 53.9488 71.2415L53.4872 69.8959H50.7644L50.3027 71.2415C50.2713 71.3225 50.2163 71.397 50.1378 71.465C50.0593 71.5298 49.9604 71.5621 49.841 71.5621H48.734L51.405 64.5133H52.8512L55.5175 71.5621Z" fill="#333333"/>
</svg>
